<?xml version="1.0" standalone="no"?>
<!DOCTYPE svg PUBLIC "-//W3C//DTD SVG 1.1//EN"
 "http://www.w3.org/Graphics/SVG/1.1/DTD/svg11.dtd">
<!-- Created with svg_stack (http://github.com/astraw/svg_stack) -->
<svg xmlns:sodipodi="http://sodipodi.sourceforge.net/DTD/sodipodi-0.dtd" xmlns="http://www.w3.org/2000/svg" version="1.1" width="48.0" height="48.0">
  <defs/>
  <g id="id0:id0" transform="matrix(1.25,0,0,1.25,0.0,0.0)"><g transform="translate(0.000000,38.400000) scale(0.040000,-0.040000)" fill="#929394" stroke="none">
<path d="M520 952 c0 -5 -11 -14 -25 -20 -15 -7 -25 -20 -25 -32 0 -11 -7 -23 -15 -26 -21 -9 -19 -61 3 -69 9 -3 34 -21 55 -40 52 -49 51 -89 -3 -143 -22 -21 -40 -43 -40 -49 0 -5 18 -26 40 -46 44 -39 47 -48 25 -67 -8 -7 -15 -21 -15 -31 0 -11 -4 -19 -9 -19 -5 0 -13 -9 -16 -21 -5 -15 1 -29 24 -53 28 -28 31 -38 29 -86 -1 -54 -2 -54 -5 -10 -3 31 -12 54 -32 75 -57 62 -57 63 -27 94 22 23 27 36 24 67 -2 29 -8 40 -22 42 -10 2 -28 13 -40 23 l-20 19 42 43 c71 72 58 114 -63 212 -28 21 -54 45 -58 52 -12 19 -103 17 -111 -2 -3 -9 -19 -15 -41 -15 -23 0 -38 -6 -42 -16 -3 -8 -12 -13 -19 -10 -18 7 -47 -23 -40 -41 4 -8 -4 -17 -18 -23 -14 -5 -26 -19 -28 -32 -2 -17 -9 -23 -26 -22 -22 1 -22 1 -22 -157 l0 -159 25 0 c15 0 25 -5 24 -12 -3 -28 2 -37 24 -40 12 -2 23 -9 23 -15 1 -7 2 -17 3 -23 0 -5 12 -10 25 -10 13 0 26 -7 30 -15 3 -8 14 -15 25 -15 13 0 21 -8 23 -22 2 -14 11 -24 23 -26 12 -2 26 -15 32 -32 7 -20 18 -30 31 -30 14 0 22 -8 24 -22 2 -13 11 -24 23 -26 11 -2 28 -11 37 -19 9 -8 22 -12 27 -8 6 3 14 -1 17 -9 3 -9 17 -16 30 -16 19 0 24 -5 24 -25 0 -24 3 -25 60 -25 l60 0 0 35 c0 27 4 35 18 35 23 0 42 19 42 41 0 11 9 19 23 21 18 2 23 10 25 41 3 32 7 37 28 37 21 0 24 4 24 39 0 36 3 40 28 43 23 3 27 8 30 41 3 29 7 37 23 37 11 0 23 10 28 24 5 13 19 26 30 29 16 4 21 13 21 41 0 32 3 36 25 36 l25 0 0 150 0 150 -24 0 c-16 0 -36 14 -59 40 -19 22 -40 40 -48 40 -8 0 -20 9 -27 20 -7 11 -18 20 -26 20 -7 0 -21 9 -31 20 -16 18 -31 20 -122 20 -56 0 -103 -4 -103 -8z m205 -46 c31 -29 26 -33 -46 -42 -30 -4 -60 -10 -68 -14 -9 -5 -24 4 -42 25 -34 38 -36 49 -9 42 11 -3 23 -1 26 4 3 5 29 9 59 9 43 0 59 -5 80 -24z m-163 -68 c20 -20 21 -53 2 -53 -16 0 -74 48 -74 62 0 27 41 22 72 -9z m-209 -28 c15 -13 27 -27 27 -31 0 -7 -28 -14 -100 -26 -19 -3 -38 -10 -42 -16 -7 -12 -76 41 -77 61 -1 7 13 12 38 12 22 0 41 5 44 13 8 22 79 14 110 -13z m437 10 c6 -11 19 -20 29 -20 11 0 21 -6 24 -14 3 -8 16 -16 29 -18 23 -3 23 -5 23 -128 l0 -124 -25 -6 c-20 -5 -26 -13 -28 -42 -2 -29 -8 -37 -25 -40 -14 -2 -23 -11 -25 -25 -3 -17 -10 -23 -28 -23 -21 0 -24 -4 -24 -40 0 -36 -3 -40 -24 -40 -27 0 -39 -21 -30 -55 5 -20 2 -24 -23 -27 -24 -3 -28 -8 -31 -40 -3 -33 -7 -38 -28 -38 -20 0 -24 -5 -24 -31 0 -17 -4 -28 -10 -24 -16 10 -12 91 5 105 10 8 15 30 15 64 0 42 -5 57 -30 85 -34 38 -37 49 -15 57 8 4 15 16 15 29 0 12 7 28 15 35 23 19 18 35 -26 75 l-41 37 42 43 c37 37 41 47 38 81 -2 34 0 39 22 44 19 4 26 13 28 38 3 31 5 32 51 32 31 0 53 5 61 15 17 20 27 19 40 -5z m-630 -63 c0 -7 11 -21 25 -31 14 -10 25 -24 25 -29 0 -16 -61 -77 -77 -77 -7 0 -26 14 -43 30 l-31 31 43 43 c46 47 58 54 58 33z m264 -52 c3 -8 15 -15 26 -15 38 0 33 -27 -14 -74 -25 -25 -46 -49 -46 -54 0 -6 20 -30 45 -55 25 -26 45 -48 45 -51 0 -3 -13 -19 -30 -36 -42 -43 -40 -76 10 -125 37 -36 40 -43 40 -96 0 -38 5 -61 15 -69 17 -14 20 -56 6 -65 -5 -3 -18 6 -29 20 -11 14 -25 25 -32 25 -7 0 -45 32 -84 70 -40 39 -80 70 -89 70 -9 0 -17 10 -19 22 -2 15 -11 24 -25 26 -13 2 -23 11 -25 25 -2 13 -12 23 -28 27 -25 6 -25 6 -25 120 0 92 3 114 14 112 19 -4 41 17 41 39 0 11 9 19 23 21 16 2 23 11 25 31 2 19 9 27 22 27 10 0 22 5 25 10 10 17 102 12 109 -5z m-342 -92 c15 -14 18 -32 18 -120 0 -57 -4 -103 -9 -103 -5 0 -19 14 -32 31 -18 25 -22 45 -23 120 -1 95 7 108 46 72z"/>
</g>
</g>
  <g id="id1:id1" transform="matrix(1.25,0,0,1.25,0.0,0.0)"><g transform="translate(0.000000,38.400000) scale(0.040000,-0.040000)" fill="#50565e" stroke="none">
<path d="M520 952 c0 -5 -11 -14 -25 -20 -15 -7 -25 -20 -25 -32 0 -11 -7 -23 -15 -26 -21 -9 -19 -61 3 -69 9 -3 34 -21 55 -40 52 -49 51 -89 -3 -143 -22 -21 -40 -43 -40 -49 0 -5 18 -26 40 -46 44 -39 47 -48 25 -67 -8 -7 -15 -21 -15 -31 0 -11 -4 -19 -9 -19 -5 0 -13 -9 -16 -21 -5 -15 1 -29 24 -53 28 -28 31 -38 29 -86 -1 -54 -2 -54 -5 -10 -3 31 -12 54 -32 75 -57 62 -57 63 -27 94 22 23 27 36 24 67 -2 29 -8 40 -22 42 -10 2 -28 13 -40 23 l-20 19 42 43 c71 72 58 114 -63 212 -28 21 -54 45 -58 52 -12 19 -103 17 -111 -2 -3 -9 -19 -15 -41 -15 -23 0 -38 -6 -42 -16 -3 -8 -12 -13 -19 -10 -18 7 -47 -23 -40 -41 4 -8 -4 -17 -18 -23 -14 -5 -26 -19 -28 -32 -2 -17 -9 -23 -26 -22 -22 1 -22 1 -22 -157 l0 -159 25 0 c15 0 25 -5 24 -12 -3 -28 2 -37 24 -40 12 -2 23 -9 23 -15 1 -7 2 -17 3 -23 0 -5 12 -10 25 -10 13 0 26 -7 30 -15 3 -8 14 -15 25 -15 13 0 21 -8 23 -22 2 -14 11 -24 23 -26 12 -2 26 -15 32 -32 7 -20 18 -30 31 -30 14 0 22 -8 24 -22 2 -13 11 -24 23 -26 11 -2 28 -11 37 -19 9 -8 22 -12 27 -8 6 3 14 -1 17 -9 3 -9 17 -16 30 -16 19 0 24 -5 24 -25 0 -24 3 -25 60 -25 l60 0 0 35 c0 27 4 35 18 35 23 0 42 19 42 41 0 11 9 19 23 21 18 2 23 10 25 41 3 32 7 37 28 37 21 0 24 4 24 39 0 36 3 40 28 43 23 3 27 8 30 41 3 29 7 37 23 37 11 0 23 10 28 24 5 13 19 26 30 29 16 4 21 13 21 41 0 32 3 36 25 36 l25 0 0 150 0 150 -24 0 c-16 0 -36 14 -59 40 -19 22 -40 40 -48 40 -8 0 -20 9 -27 20 -7 11 -18 20 -26 20 -7 0 -21 9 -31 20 -16 18 -31 20 -122 20 -56 0 -103 -4 -103 -8z m205 -46 c31 -29 26 -33 -46 -42 -30 -4 -60 -10 -68 -14 -9 -5 -24 4 -42 25 -34 38 -36 49 -9 42 11 -3 23 -1 26 4 3 5 29 9 59 9 43 0 59 -5 80 -24z m-163 -68 c20 -20 21 -53 2 -53 -16 0 -74 48 -74 62 0 27 41 22 72 -9z m-209 -28 c15 -13 27 -27 27 -31 0 -7 -28 -14 -100 -26 -19 -3 -38 -10 -42 -16 -7 -12 -76 41 -77 61 -1 7 13 12 38 12 22 0 41 5 44 13 8 22 79 14 110 -13z m437 10 c6 -11 19 -20 29 -20 11 0 21 -6 24 -14 3 -8 16 -16 29 -18 23 -3 23 -5 23 -128 l0 -124 -25 -6 c-20 -5 -26 -13 -28 -42 -2 -29 -8 -37 -25 -40 -14 -2 -23 -11 -25 -25 -3 -17 -10 -23 -28 -23 -21 0 -24 -4 -24 -40 0 -36 -3 -40 -24 -40 -27 0 -39 -21 -30 -55 5 -20 2 -24 -23 -27 -24 -3 -28 -8 -31 -40 -3 -33 -7 -38 -28 -38 -20 0 -24 -5 -24 -31 0 -17 -4 -28 -10 -24 -16 10 -12 91 5 105 10 8 15 30 15 64 0 42 -5 57 -30 85 -34 38 -37 49 -15 57 8 4 15 16 15 29 0 12 7 28 15 35 23 19 18 35 -26 75 l-41 37 42 43 c37 37 41 47 38 81 -2 34 0 39 22 44 19 4 26 13 28 38 3 31 5 32 51 32 31 0 53 5 61 15 17 20 27 19 40 -5z m-630 -63 c0 -7 11 -21 25 -31 14 -10 25 -24 25 -29 0 -16 -61 -77 -77 -77 -7 0 -26 14 -43 30 l-31 31 43 43 c46 47 58 54 58 33z m264 -52 c3 -8 15 -15 26 -15 38 0 33 -27 -14 -74 -25 -25 -46 -49 -46 -54 0 -6 20 -30 45 -55 25 -26 45 -48 45 -51 0 -3 -13 -19 -30 -36 -42 -43 -40 -76 10 -125 37 -36 40 -43 40 -96 0 -38 5 -61 15 -69 17 -14 20 -56 6 -65 -5 -3 -18 6 -29 20 -11 14 -25 25 -32 25 -7 0 -45 32 -84 70 -40 39 -80 70 -89 70 -9 0 -17 10 -19 22 -2 15 -11 24 -25 26 -13 2 -23 11 -25 25 -2 13 -12 23 -28 27 -25 6 -25 6 -25 120 0 92 3 114 14 112 19 -4 41 17 41 39 0 11 9 19 23 21 16 2 23 11 25 31 2 19 9 27 22 27 10 0 22 5 25 10 10 17 102 12 109 -5z m-342 -92 c15 -14 18 -32 18 -120 0 -57 -4 -103 -9 -103 -5 0 -19 14 -32 31 -18 25 -22 45 -23 120 -1 95 7 108 46 72z"/>
</g>
</g>
  <g id="id2:id2" transform="matrix(1.25,0,0,1.25,0.0,0.0)"><g transform="translate(0.000000,38.400000) scale(0.040000,-0.040000)" fill="#353b48" stroke="none">
<path d="M520 952 c0 -5 -11 -14 -25 -20 -15 -7 -25 -20 -25 -32 0 -11 -7 -23 -15 -26 -21 -9 -19 -61 3 -69 9 -3 34 -21 55 -40 52 -49 51 -89 -3 -143 -22 -21 -40 -43 -40 -49 0 -5 18 -26 40 -46 44 -39 47 -48 25 -67 -8 -7 -15 -21 -15 -31 0 -11 -4 -19 -9 -19 -5 0 -13 -9 -16 -21 -5 -15 1 -29 24 -53 28 -28 31 -38 29 -86 -1 -54 -2 -54 -5 -10 -3 31 -12 54 -32 75 -57 62 -57 63 -27 94 22 23 27 36 24 67 -2 29 -8 40 -22 42 -10 2 -28 13 -40 23 l-20 19 42 43 c71 72 58 114 -63 212 -28 21 -54 45 -58 52 -12 19 -103 17 -111 -2 -3 -9 -19 -15 -41 -15 -23 0 -38 -6 -42 -16 -3 -8 -12 -13 -19 -10 -18 7 -47 -23 -40 -41 4 -8 -4 -17 -18 -23 -14 -5 -26 -19 -28 -32 -2 -17 -9 -23 -26 -22 -22 1 -22 1 -22 -157 l0 -159 25 0 c15 0 25 -5 24 -12 -3 -28 2 -37 24 -40 12 -2 23 -9 23 -15 1 -7 2 -17 3 -23 0 -5 12 -10 25 -10 13 0 26 -7 30 -15 3 -8 14 -15 25 -15 13 0 21 -8 23 -22 2 -14 11 -24 23 -26 12 -2 26 -15 32 -32 7 -20 18 -30 31 -30 14 0 22 -8 24 -22 2 -13 11 -24 23 -26 11 -2 28 -11 37 -19 9 -8 22 -12 27 -8 6 3 14 -1 17 -9 3 -9 17 -16 30 -16 19 0 24 -5 24 -25 0 -24 3 -25 60 -25 l60 0 0 35 c0 27 4 35 18 35 23 0 42 19 42 41 0 11 9 19 23 21 18 2 23 10 25 41 3 32 7 37 28 37 21 0 24 4 24 39 0 36 3 40 28 43 23 3 27 8 30 41 3 29 7 37 23 37 11 0 23 10 28 24 5 13 19 26 30 29 16 4 21 13 21 41 0 32 3 36 25 36 l25 0 0 150 0 150 -24 0 c-16 0 -36 14 -59 40 -19 22 -40 40 -48 40 -8 0 -20 9 -27 20 -7 11 -18 20 -26 20 -7 0 -21 9 -31 20 -16 18 -31 20 -122 20 -56 0 -103 -4 -103 -8z m205 -46 c31 -29 26 -33 -46 -42 -30 -4 -60 -10 -68 -14 -9 -5 -24 4 -42 25 -34 38 -36 49 -9 42 11 -3 23 -1 26 4 3 5 29 9 59 9 43 0 59 -5 80 -24z m-163 -68 c20 -20 21 -53 2 -53 -16 0 -74 48 -74 62 0 27 41 22 72 -9z m-209 -28 c15 -13 27 -27 27 -31 0 -7 -28 -14 -100 -26 -19 -3 -38 -10 -42 -16 -7 -12 -76 41 -77 61 -1 7 13 12 38 12 22 0 41 5 44 13 8 22 79 14 110 -13z m437 10 c6 -11 19 -20 29 -20 11 0 21 -6 24 -14 3 -8 16 -16 29 -18 23 -3 23 -5 23 -128 l0 -124 -25 -6 c-20 -5 -26 -13 -28 -42 -2 -29 -8 -37 -25 -40 -14 -2 -23 -11 -25 -25 -3 -17 -10 -23 -28 -23 -21 0 -24 -4 -24 -40 0 -36 -3 -40 -24 -40 -27 0 -39 -21 -30 -55 5 -20 2 -24 -23 -27 -24 -3 -28 -8 -31 -40 -3 -33 -7 -38 -28 -38 -20 0 -24 -5 -24 -31 0 -17 -4 -28 -10 -24 -16 10 -12 91 5 105 10 8 15 30 15 64 0 42 -5 57 -30 85 -34 38 -37 49 -15 57 8 4 15 16 15 29 0 12 7 28 15 35 23 19 18 35 -26 75 l-41 37 42 43 c37 37 41 47 38 81 -2 34 0 39 22 44 19 4 26 13 28 38 3 31 5 32 51 32 31 0 53 5 61 15 17 20 27 19 40 -5z m-630 -63 c0 -7 11 -21 25 -31 14 -10 25 -24 25 -29 0 -16 -61 -77 -77 -77 -7 0 -26 14 -43 30 l-31 31 43 43 c46 47 58 54 58 33z m264 -52 c3 -8 15 -15 26 -15 38 0 33 -27 -14 -74 -25 -25 -46 -49 -46 -54 0 -6 20 -30 45 -55 25 -26 45 -48 45 -51 0 -3 -13 -19 -30 -36 -42 -43 -40 -76 10 -125 37 -36 40 -43 40 -96 0 -38 5 -61 15 -69 17 -14 20 -56 6 -65 -5 -3 -18 6 -29 20 -11 14 -25 25 -32 25 -7 0 -45 32 -84 70 -40 39 -80 70 -89 70 -9 0 -17 10 -19 22 -2 15 -11 24 -25 26 -13 2 -23 11 -25 25 -2 13 -12 23 -28 27 -25 6 -25 6 -25 120 0 92 3 114 14 112 19 -4 41 17 41 39 0 11 9 19 23 21 16 2 23 11 25 31 2 19 9 27 22 27 10 0 22 5 25 10 10 17 102 12 109 -5z m-342 -92 c15 -14 18 -32 18 -120 0 -57 -4 -103 -9 -103 -5 0 -19 14 -32 31 -18 25 -22 45 -23 120 -1 95 7 108 46 72z"/>
</g>
</g>
  <g id="id3:id3" transform="matrix(1.25,0,0,1.25,0.0,0.0)"><g transform="translate(0.000000,38.400000) scale(0.040000,-0.040000)" fill="#f57c86" stroke="none">
<path d="M520 952 c0 -5 -11 -14 -25 -20 -15 -7 -25 -20 -25 -32 0 -11 -7 -23 -15 -26 -21 -9 -19 -61 3 -69 9 -3 34 -21 55 -40 52 -49 51 -89 -3 -143 -22 -21 -40 -43 -40 -49 0 -5 18 -26 40 -46 44 -39 47 -48 25 -67 -8 -7 -15 -21 -15 -31 0 -11 -4 -19 -9 -19 -5 0 -13 -9 -16 -21 -5 -15 1 -29 24 -53 28 -28 31 -38 29 -86 -1 -54 -2 -54 -5 -10 -3 31 -12 54 -32 75 -57 62 -57 63 -27 94 22 23 27 36 24 67 -2 29 -8 40 -22 42 -10 2 -28 13 -40 23 l-20 19 42 43 c71 72 58 114 -63 212 -28 21 -54 45 -58 52 -12 19 -103 17 -111 -2 -3 -9 -19 -15 -41 -15 -23 0 -38 -6 -42 -16 -3 -8 -12 -13 -19 -10 -18 7 -47 -23 -40 -41 4 -8 -4 -17 -18 -23 -14 -5 -26 -19 -28 -32 -2 -17 -9 -23 -26 -22 -22 1 -22 1 -22 -157 l0 -159 25 0 c15 0 25 -5 24 -12 -3 -28 2 -37 24 -40 12 -2 23 -9 23 -15 1 -7 2 -17 3 -23 0 -5 12 -10 25 -10 13 0 26 -7 30 -15 3 -8 14 -15 25 -15 13 0 21 -8 23 -22 2 -14 11 -24 23 -26 12 -2 26 -15 32 -32 7 -20 18 -30 31 -30 14 0 22 -8 24 -22 2 -13 11 -24 23 -26 11 -2 28 -11 37 -19 9 -8 22 -12 27 -8 6 3 14 -1 17 -9 3 -9 17 -16 30 -16 19 0 24 -5 24 -25 0 -24 3 -25 60 -25 l60 0 0 35 c0 27 4 35 18 35 23 0 42 19 42 41 0 11 9 19 23 21 18 2 23 10 25 41 3 32 7 37 28 37 21 0 24 4 24 39 0 36 3 40 28 43 23 3 27 8 30 41 3 29 7 37 23 37 11 0 23 10 28 24 5 13 19 26 30 29 16 4 21 13 21 41 0 32 3 36 25 36 l25 0 0 150 0 150 -24 0 c-16 0 -36 14 -59 40 -19 22 -40 40 -48 40 -8 0 -20 9 -27 20 -7 11 -18 20 -26 20 -7 0 -21 9 -31 20 -16 18 -31 20 -122 20 -56 0 -103 -4 -103 -8z m205 -46 c31 -29 26 -33 -46 -42 -30 -4 -60 -10 -68 -14 -9 -5 -24 4 -42 25 -34 38 -36 49 -9 42 11 -3 23 -1 26 4 3 5 29 9 59 9 43 0 59 -5 80 -24z m-163 -68 c20 -20 21 -53 2 -53 -16 0 -74 48 -74 62 0 27 41 22 72 -9z m-209 -28 c15 -13 27 -27 27 -31 0 -7 -28 -14 -100 -26 -19 -3 -38 -10 -42 -16 -7 -12 -76 41 -77 61 -1 7 13 12 38 12 22 0 41 5 44 13 8 22 79 14 110 -13z m437 10 c6 -11 19 -20 29 -20 11 0 21 -6 24 -14 3 -8 16 -16 29 -18 23 -3 23 -5 23 -128 l0 -124 -25 -6 c-20 -5 -26 -13 -28 -42 -2 -29 -8 -37 -25 -40 -14 -2 -23 -11 -25 -25 -3 -17 -10 -23 -28 -23 -21 0 -24 -4 -24 -40 0 -36 -3 -40 -24 -40 -27 0 -39 -21 -30 -55 5 -20 2 -24 -23 -27 -24 -3 -28 -8 -31 -40 -3 -33 -7 -38 -28 -38 -20 0 -24 -5 -24 -31 0 -17 -4 -28 -10 -24 -16 10 -12 91 5 105 10 8 15 30 15 64 0 42 -5 57 -30 85 -34 38 -37 49 -15 57 8 4 15 16 15 29 0 12 7 28 15 35 23 19 18 35 -26 75 l-41 37 42 43 c37 37 41 47 38 81 -2 34 0 39 22 44 19 4 26 13 28 38 3 31 5 32 51 32 31 0 53 5 61 15 17 20 27 19 40 -5z m-630 -63 c0 -7 11 -21 25 -31 14 -10 25 -24 25 -29 0 -16 -61 -77 -77 -77 -7 0 -26 14 -43 30 l-31 31 43 43 c46 47 58 54 58 33z m264 -52 c3 -8 15 -15 26 -15 38 0 33 -27 -14 -74 -25 -25 -46 -49 -46 -54 0 -6 20 -30 45 -55 25 -26 45 -48 45 -51 0 -3 -13 -19 -30 -36 -42 -43 -40 -76 10 -125 37 -36 40 -43 40 -96 0 -38 5 -61 15 -69 17 -14 20 -56 6 -65 -5 -3 -18 6 -29 20 -11 14 -25 25 -32 25 -7 0 -45 32 -84 70 -40 39 -80 70 -89 70 -9 0 -17 10 -19 22 -2 15 -11 24 -25 26 -13 2 -23 11 -25 25 -2 13 -12 23 -28 27 -25 6 -25 6 -25 120 0 92 3 114 14 112 19 -4 41 17 41 39 0 11 9 19 23 21 16 2 23 11 25 31 2 19 9 27 22 27 10 0 22 5 25 10 10 17 102 12 109 -5z m-342 -92 c15 -14 18 -32 18 -120 0 -57 -4 -103 -9 -103 -5 0 -19 14 -32 31 -18 25 -22 45 -23 120 -1 95 7 108 46 72z"/>
<path d="M320 645 c-7 -8 -21 -15 -31 -15 -11 0 -19 -9 -21 -22 -2 -15 -11 -24 -25 -26 -21 -3 -23 -9 -23 -63 0 -52 2 -60 18 -57 12 2 18 14 20 41 3 31 7 37 27 37 19 0 24 6 27 32 2 25 9 34 28 38 16 4 25 13 25 25 0 25 -28 31 -45 10z"/>
</g>
</g>
  <g id="id4:id4" transform="matrix(1.25,0,0,1.25,0.0,0.0)"><g transform="translate(0.000000,38.400000) scale(0.040000,-0.040000)" fill="#e74b5a" stroke="none">
<path d="M520 952 c0 -5 -11 -14 -25 -20 -15 -7 -25 -20 -25 -32 0 -11 -7 -23 -15 -26 -21 -9 -19 -61 3 -69 9 -3 34 -21 55 -40 52 -49 51 -89 -3 -143 -22 -21 -40 -43 -40 -49 0 -5 18 -26 40 -46 44 -39 47 -48 25 -67 -8 -7 -15 -21 -15 -31 0 -11 -4 -19 -9 -19 -5 0 -13 -9 -16 -21 -5 -15 1 -29 24 -53 28 -28 31 -38 29 -86 -1 -54 -2 -54 -5 -10 -3 31 -12 54 -32 75 -57 62 -57 63 -27 94 22 23 27 36 24 67 -2 29 -8 40 -22 42 -10 2 -28 13 -40 23 l-20 19 42 43 c71 72 58 114 -63 212 -28 21 -54 45 -58 52 -12 19 -103 17 -111 -2 -3 -9 -19 -15 -41 -15 -23 0 -38 -6 -42 -16 -3 -8 -12 -13 -19 -10 -18 7 -47 -23 -40 -41 4 -8 -4 -17 -18 -23 -14 -5 -26 -19 -28 -32 -2 -17 -9 -23 -26 -22 -22 1 -22 1 -22 -157 l0 -159 25 0 c15 0 25 -5 24 -12 -3 -28 2 -37 24 -40 12 -2 23 -9 23 -15 1 -7 2 -17 3 -23 0 -5 12 -10 25 -10 13 0 26 -7 30 -15 3 -8 14 -15 25 -15 13 0 21 -8 23 -22 2 -14 11 -24 23 -26 12 -2 26 -15 32 -32 7 -20 18 -30 31 -30 14 0 22 -8 24 -22 2 -13 11 -24 23 -26 11 -2 28 -11 37 -19 9 -8 22 -12 27 -8 6 3 14 -1 17 -9 3 -9 17 -16 30 -16 19 0 24 -5 24 -25 0 -24 3 -25 60 -25 l60 0 0 35 c0 27 4 35 18 35 23 0 42 19 42 41 0 11 9 19 23 21 18 2 23 10 25 41 3 32 7 37 28 37 21 0 24 4 24 39 0 36 3 40 28 43 23 3 27 8 30 41 3 29 7 37 23 37 11 0 23 10 28 24 5 13 19 26 30 29 16 4 21 13 21 41 0 32 3 36 25 36 l25 0 0 150 0 150 -24 0 c-16 0 -36 14 -59 40 -19 22 -40 40 -48 40 -8 0 -20 9 -27 20 -7 11 -18 20 -26 20 -7 0 -21 9 -31 20 -16 18 -31 20 -122 20 -56 0 -103 -4 -103 -8z m205 -46 c31 -29 26 -33 -46 -42 -30 -4 -60 -10 -68 -14 -9 -5 -24 4 -42 25 -34 38 -36 49 -9 42 11 -3 23 -1 26 4 3 5 29 9 59 9 43 0 59 -5 80 -24z m-163 -68 c20 -20 21 -53 2 -53 -16 0 -74 48 -74 62 0 27 41 22 72 -9z m-209 -28 c15 -13 27 -27 27 -31 0 -7 -28 -14 -100 -26 -19 -3 -38 -10 -42 -16 -7 -12 -76 41 -77 61 -1 7 13 12 38 12 22 0 41 5 44 13 8 22 79 14 110 -13z m437 10 c6 -11 19 -20 29 -20 11 0 21 -6 24 -14 3 -8 16 -16 29 -18 23 -3 23 -5 23 -128 l0 -124 -25 -6 c-20 -5 -26 -13 -28 -42 -2 -29 -8 -37 -25 -40 -14 -2 -23 -11 -25 -25 -3 -17 -10 -23 -28 -23 -21 0 -24 -4 -24 -40 0 -36 -3 -40 -24 -40 -27 0 -39 -21 -30 -55 5 -20 2 -24 -23 -27 -24 -3 -28 -8 -31 -40 -3 -33 -7 -38 -28 -38 -20 0 -24 -5 -24 -31 0 -17 -4 -28 -10 -24 -16 10 -12 91 5 105 10 8 15 30 15 64 0 42 -5 57 -30 85 -34 38 -37 49 -15 57 8 4 15 16 15 29 0 12 7 28 15 35 23 19 18 35 -26 75 l-41 37 42 43 c37 37 41 47 38 81 -2 34 0 39 22 44 19 4 26 13 28 38 3 31 5 32 51 32 31 0 53 5 61 15 17 20 27 19 40 -5z m-630 -63 c0 -7 11 -21 25 -31 14 -10 25 -24 25 -29 0 -16 -61 -77 -77 -77 -7 0 -26 14 -43 30 l-31 31 43 43 c46 47 58 54 58 33z m264 -52 c3 -8 15 -15 26 -15 38 0 33 -27 -14 -74 -25 -25 -46 -49 -46 -54 0 -6 20 -30 45 -55 25 -26 45 -48 45 -51 0 -3 -13 -19 -30 -36 -42 -43 -40 -76 10 -125 37 -36 40 -43 40 -96 0 -38 5 -61 15 -69 17 -14 20 -56 6 -65 -5 -3 -18 6 -29 20 -11 14 -25 25 -32 25 -7 0 -45 32 -84 70 -40 39 -80 70 -89 70 -9 0 -17 10 -19 22 -2 15 -11 24 -25 26 -13 2 -23 11 -25 25 -2 13 -12 23 -28 27 -25 6 -25 6 -25 120 0 92 3 114 14 112 19 -4 41 17 41 39 0 13 7 19 21 19 15 0 20 -5 17 -22 -2 -13 -8 -23 -15 -23 -25 0 -34 -23 -31 -81 3 -55 5 -59 28 -59 22 0 25 5 28 38 3 31 7 37 27 37 19 0 24 6 27 33 2 27 8 33 31 35 25 3 28 7 25 35 -2 25 -8 33 -27 35 -15 2 -28 -3 -33 -12 -5 -9 -19 -16 -32 -16 -19 0 -22 4 -18 30 3 21 10 30 23 30 10 0 21 5 24 10 10 17 102 12 109 -5z m-59 -70 c0 -12 -9 -21 -25 -25 -19 -4 -26 -13 -28 -38 -3 -26 -8 -32 -27 -32 -20 0 -24 -6 -27 -37 -2 -27 -8 -39 -20 -41 -16 -3 -18 5 -18 57 0 54 2 60 23 63 14 2 23 11 25 26 2 13 10 22 21 22 10 0 24 7 31 15 17 21 45 15 45 -10z m-283 -22 c15 -14 18 -32 18 -120 0 -57 -4 -103 -9 -103 -5 0 -19 14 -32 31 -18 25 -22 45 -23 120 -1 95 7 108 46 72z"/>
</g>
</g>
  <g id="id5:id5" transform="matrix(1.25,0,0,1.25,0.0,0.0)"><g transform="translate(0.000000,38.400000) scale(0.040000,-0.040000)" fill="#b20952" stroke="none">
<path d="M520 952 c0 -5 -11 -14 -25 -20 -15 -7 -25 -20 -25 -32 0 -11 -7 -23 -15 -26 -21 -9 -19 -61 3 -69 9 -3 34 -21 55 -40 52 -49 51 -89 -3 -143 -22 -21 -40 -43 -40 -49 0 -5 18 -26 40 -46 44 -39 47 -48 25 -67 -8 -7 -15 -21 -15 -31 0 -11 -4 -19 -9 -19 -5 0 -13 -9 -16 -21 -5 -15 1 -29 24 -53 28 -28 31 -38 29 -86 -1 -54 -2 -54 -5 -10 -3 31 -12 54 -32 75 -57 62 -57 63 -27 94 22 23 27 36 24 67 -2 29 -8 40 -22 42 -10 2 -28 13 -40 23 l-20 19 42 43 c71 72 58 114 -63 212 -28 21 -54 45 -58 52 -12 19 -103 17 -111 -2 -3 -9 -19 -15 -41 -15 -23 0 -38 -6 -42 -16 -3 -8 -12 -13 -19 -10 -18 7 -47 -23 -40 -41 4 -8 -4 -17 -18 -23 -14 -5 -26 -19 -28 -32 -2 -17 -9 -23 -26 -22 -22 1 -22 1 -22 -157 l0 -159 25 0 c15 0 25 -5 24 -12 -3 -28 2 -37 24 -40 12 -2 23 -9 23 -15 1 -7 2 -17 3 -23 0 -5 12 -10 25 -10 13 0 26 -7 30 -15 3 -8 14 -15 25 -15 13 0 21 -8 23 -22 2 -14 11 -24 23 -26 12 -2 26 -15 32 -32 7 -20 18 -30 31 -30 14 0 22 -8 24 -22 2 -13 11 -24 23 -26 11 -2 28 -11 37 -19 9 -8 22 -12 27 -8 6 3 14 -1 17 -9 3 -9 17 -16 30 -16 19 0 24 -5 24 -25 0 -24 3 -25 60 -25 l60 0 0 35 c0 27 4 35 18 35 23 0 42 19 42 41 0 11 9 19 23 21 18 2 23 10 25 41 3 32 7 37 28 37 21 0 24 4 24 39 0 36 3 40 28 43 23 3 27 8 30 41 3 29 7 37 23 37 11 0 23 10 28 24 5 13 19 26 30 29 16 4 21 13 21 41 0 32 3 36 25 36 l25 0 0 150 0 150 -24 0 c-16 0 -36 14 -59 40 -19 22 -40 40 -48 40 -8 0 -20 9 -27 20 -7 11 -18 20 -26 20 -7 0 -21 9 -31 20 -16 18 -31 20 -122 20 -56 0 -103 -4 -103 -8z m205 -46 c31 -29 26 -33 -46 -42 -30 -4 -60 -10 -68 -14 -9 -5 -24 4 -42 25 -34 38 -36 49 -9 42 11 -3 23 -1 26 4 3 5 29 9 59 9 43 0 59 -5 80 -24z m-163 -68 c20 -20 21 -53 2 -53 -16 0 -74 48 -74 62 0 27 41 22 72 -9z m-209 -28 c15 -13 27 -27 27 -31 0 -7 -28 -14 -100 -26 -19 -3 -38 -10 -42 -16 -7 -12 -76 41 -77 61 -1 7 13 12 38 12 22 0 41 5 44 13 8 22 79 14 110 -13z m432 20 c3 -6 -1 -7 -9 -4 -18 7 -21 14 -7 14 6 0 13 -4 16 -10z m20 -27 c37 -6 46 -13 17 -13 -31 0 -30 -37 1 -42 21 -3 22 -7 22 -93 0 -85 -1 -90 -22 -93 -17 -3 -23 -11 -25 -40 -2 -29 -8 -37 -28 -42 -20 -5 -26 -13 -28 -42 -2 -29 -8 -37 -25 -40 -17 -2 -23 -12 -27 -38 -4 -26 -10 -36 -27 -38 -14 -2 -23 -11 -25 -25 -4 -28 -48 -38 -48 -10 0 10 -14 33 -30 52 -34 38 -37 49 -15 57 8 4 15 16 15 29 0 12 7 28 15 35 23 19 18 35 -26 75 l-41 37 42 43 c37 37 41 47 38 81 -2 34 0 39 22 44 19 4 26 13 28 37 3 31 5 32 55 36 29 2 59 1 67 -1 8 -2 29 -6 45 -9z m75 -39 c0 -2 -9 -4 -20 -4 -11 0 -20 4 -20 9 0 5 9 7 20 4 11 -3 20 -7 20 -9z m-720 -7 c0 -7 11 -21 25 -31 14 -10 25 -24 25 -29 0 -16 -61 -77 -77 -77 -7 0 -26 14 -43 30 l-31 31 43 43 c46 47 58 54 58 33z m736 -233 c-5 -13 -56 -25 -56 -13 0 5 11 9 25 9 l25 0 2 123 2 122 3 -114 c2 -63 2 -120 -1 -127z m-472 181 c3 -8 15 -15 26 -15 38 0 33 -27 -14 -74 -25 -25 -46 -49 -46 -54 0 -6 20 -30 45 -55 25 -26 45 -48 45 -51 0 -3 -13 -19 -30 -36 -42 -43 -40 -76 10 -125 37 -36 40 -43 40 -96 0 -38 5 -61 15 -69 17 -14 20 -56 6 -65 -5 -3 -18 6 -29 20 -11 14 -26 25 -33 26 -12 0 -12 1 0 6 7 3 24 -7 37 -23 l23 -29 1 26 c0 38 -22 54 -60 41 -16 -6 -31 -9 -31 -6 -5 16 -7 26 -8 44 -1 13 -8 20 -23 20 -21 0 -21 0 -2 -22 10 -13 -4 -2 -32 25 -37 35 -50 54 -49 75 0 21 -5 28 -22 30 -18 3 -22 0 -17 -15 4 -14 4 -15 -4 -4 -5 7 -16 18 -23 23 -11 8 -10 8 4 4 11 -3 16 -2 12 4 -3 6 -14 10 -25 10 -10 0 -20 6 -23 14 -3 8 -16 16 -29 18 -23 3 -23 5 -23 118 0 91 3 114 14 112 19 -4 41 17 41 39 0 11 9 19 23 21 16 2 23 11 25 31 2 19 9 27 22 27 10 0 22 5 25 10 10 17 102 12 109 -5z m-342 -92 c15 -14 18 -32 18 -120 0 -57 -4 -103 -9 -103 -5 0 -19 14 -32 31 -18 25 -22 45 -23 120 -1 95 7 108 46 72z m743 -180 c-11 -3 -26 -10 -33 -15 -9 -8 -11 -7 -6 6 4 10 16 16 33 15 20 -1 22 -2 6 -6z m-57 -50 c-25 -4 -28 -8 -28 -44 0 -35 -3 -39 -24 -39 -13 0 -27 -5 -29 -10 -3 -6 -4 -5 -3 2 1 7 12 14 24 16 17 3 22 10 22 36 0 40 6 46 39 45 l26 -2 -27 -4z m-171 -165 c-3 -7 -5 -2 -5 12 0 14 2 19 5 13 2 -7 2 -19 0 -25z m93 18 c0 -8 -13 -16 -30 -18 -16 -3 -30 -1 -30 4 0 4 11 8 25 8 14 0 25 5 25 10 0 6 2 10 5 10 3 0 5 -6 5 -14z m-107 -53 c-7 -3 -14 -17 -14 -31 -2 -25 -2 -25 -6 -4 -5 24 15 58 26 46 3 -4 0 -9 -6 -11z m40 -40 c-7 -2 -21 -2 -30 0 -10 3 -4 5 12 5 17 0 24 -2 18 -5z"/>
<path d="M178 363 c6 -2 18 -2 25 0 6 3 1 5 -13 5 -14 0 -19 -2 -12 -5z"/>
<path d="M348 219 c15 -16 27 -29 28 -29 1 0 -1 11 -3 24 -3 15 -13 26 -28 29 -24 4 -24 4 3 -24z"/>
</g>
</g>
  <g id="id6:id6" transform="matrix(1.25,0,0,1.25,0.0,0.0)"><g transform="translate(0.000000,38.400000) scale(0.040000,-0.040000)" fill="#8c0948" stroke="none">
<path d="M520 952 c0 -5 -11 -14 -25 -20 -15 -7 -25 -20 -25 -32 0 -11 -7 -23 -15 -26 -21 -9 -19 -61 3 -69 9 -3 34 -21 55 -40 52 -49 51 -89 -3 -143 -22 -21 -40 -43 -40 -49 0 -5 18 -26 40 -46 44 -39 47 -48 25 -67 -8 -7 -15 -21 -15 -31 0 -11 -4 -19 -9 -19 -5 0 -13 -9 -16 -21 -5 -15 1 -29 24 -53 28 -28 31 -38 29 -86 -1 -54 -2 -54 -5 -10 -3 31 -12 54 -32 75 -57 62 -57 63 -27 94 22 23 27 36 24 67 -2 29 -8 40 -22 42 -10 2 -28 13 -40 23 l-20 19 42 43 c71 72 58 114 -63 212 -28 21 -54 45 -58 52 -12 19 -103 17 -111 -2 -3 -9 -19 -15 -41 -15 -23 0 -38 -6 -42 -16 -3 -8 -12 -13 -19 -10 -18 7 -47 -23 -40 -41 4 -8 -4 -17 -18 -23 -14 -5 -26 -19 -28 -32 -2 -17 -9 -23 -26 -22 -22 1 -22 1 -22 -157 l0 -159 25 0 c15 0 25 -5 24 -12 -3 -28 2 -37 24 -40 12 -2 23 -9 23 -15 1 -7 2 -17 3 -23 0 -5 12 -10 25 -10 13 0 26 -7 30 -15 3 -8 14 -15 25 -15 13 0 21 -8 23 -22 2 -14 11 -24 23 -26 12 -2 26 -15 32 -32 7 -20 18 -30 31 -30 14 0 22 -8 24 -22 2 -13 11 -24 23 -26 11 -2 28 -11 37 -19 9 -8 22 -12 27 -8 6 3 14 -1 17 -9 3 -9 17 -16 30 -16 19 0 24 -5 24 -25 0 -24 3 -25 60 -25 l60 0 0 35 c0 27 4 35 18 35 23 0 42 19 42 41 0 11 9 19 23 21 18 2 23 10 25 41 3 32 7 37 28 37 21 0 24 4 24 39 0 36 3 40 28 43 23 3 27 8 30 41 3 29 7 37 23 37 11 0 23 10 28 24 5 13 19 26 30 29 16 4 21 13 21 41 0 32 3 36 25 36 l25 0 0 150 0 150 -24 0 c-16 0 -36 14 -59 40 -19 22 -40 40 -48 40 -8 0 -20 9 -27 20 -7 11 -18 20 -26 20 -7 0 -21 9 -31 20 -16 18 -31 20 -122 20 -56 0 -103 -4 -103 -8z m205 -46 c31 -29 26 -33 -46 -42 -30 -4 -60 -10 -68 -14 -9 -5 -24 4 -42 25 -34 38 -36 49 -9 42 11 -3 23 -1 26 4 3 5 29 9 59 9 43 0 59 -5 80 -24z m-163 -68 c20 -20 21 -53 2 -53 -16 0 -74 48 -74 62 0 27 41 22 72 -9z m-209 -28 c15 -13 27 -27 27 -31 0 -7 -28 -14 -100 -26 -19 -3 -38 -10 -42 -16 -7 -12 -76 41 -77 61 -1 7 13 12 38 12 22 0 41 5 44 13 8 22 79 14 110 -13z m437 0 c6 -11 20 -20 30 -20 12 0 20 -7 20 -16 0 -12 7 -15 25 -12 l25 5 0 -123 0 -124 -25 0 c-22 0 -25 -4 -25 -40 0 -36 -2 -40 -25 -40 -23 0 -29 -8 -26 -37 1 -6 -11 -13 -26 -15 -24 -3 -28 -8 -31 -40 -2 -29 -8 -37 -25 -40 -17 -2 -23 -11 -25 -40 -3 -33 -7 -38 -28 -38 -21 0 -24 -4 -24 -40 0 -36 -2 -40 -25 -40 -21 0 -25 -5 -25 -31 0 -18 -4 -28 -10 -24 -11 7 -3 76 10 85 30 22 18 115 -21 160 -33 37 -35 48 -14 56 8 4 15 16 15 29 0 12 7 28 15 35 23 19 18 35 -26 75 l-41 37 42 43 c37 37 41 47 38 81 -2 34 0 39 22 44 19 4 26 13 28 38 3 31 4 32 52 32 27 0 52 5 55 10 10 17 34 11 45 -10z m-630 -53 c0 -7 11 -21 25 -31 14 -10 25 -24 25 -29 0 -16 -61 -77 -77 -77 -7 0 -26 14 -43 30 l-31 31 43 43 c46 47 58 54 58 33z m264 -52 c3 -8 15 -15 26 -15 38 0 33 -27 -14 -74 -25 -25 -46 -49 -46 -54 0 -6 20 -30 45 -55 25 -26 45 -48 45 -51 0 -3 -13 -19 -30 -36 -42 -43 -40 -76 10 -125 38 -37 40 -42 40 -101 0 -35 5 -66 10 -69 6 -3 10 -18 10 -33 l-1 -27 -22 28 c-13 15 -30 27 -39 27 -9 0 -36 21 -60 46 -61 66 -75 78 -101 85 -12 3 -21 11 -19 18 4 19 -19 43 -35 37 -9 -4 -18 5 -25 24 -6 19 -17 30 -29 30 -25 0 -30 27 -27 135 2 69 6 89 17 87 19 -4 41 17 41 39 0 11 9 19 23 21 16 2 23 11 25 31 2 19 9 27 22 27 10 0 22 5 25 10 10 17 102 12 109 -5z m-342 -92 c15 -14 18 -32 18 -120 0 -57 -4 -103 -9 -103 -5 0 -19 14 -32 31 -18 25 -22 45 -23 120 -1 95 7 108 46 72z"/>
</g>
</g>
  <g id="id7:id7" transform="matrix(1.25,0,0,1.25,0.0,0.0)"><g transform="translate(0.000000,38.400000) scale(0.040000,-0.040000)" fill="#da1428" stroke="none">
<path d="M520 952 c0 -5 -11 -14 -25 -20 -15 -7 -25 -20 -25 -32 0 -11 -7 -23 -15 -26 -21 -9 -19 -61 3 -69 9 -3 34 -21 55 -40 52 -49 51 -89 -3 -143 -22 -21 -40 -43 -40 -49 0 -5 18 -26 40 -46 44 -39 47 -48 25 -67 -8 -7 -15 -21 -15 -31 0 -11 -4 -19 -9 -19 -5 0 -13 -9 -16 -21 -5 -15 1 -29 24 -53 28 -28 31 -38 29 -86 -1 -54 -2 -54 -5 -10 -3 31 -12 54 -32 75 -57 62 -57 63 -27 94 22 23 27 36 24 67 -2 29 -8 40 -22 42 -10 2 -28 13 -40 23 l-20 19 42 43 c71 72 58 114 -63 212 -28 21 -54 45 -58 52 -12 19 -103 17 -111 -2 -3 -9 -19 -15 -41 -15 -23 0 -38 -6 -42 -16 -3 -8 -12 -13 -19 -10 -18 7 -47 -23 -40 -41 4 -8 -4 -17 -18 -23 -14 -5 -26 -19 -28 -32 -2 -17 -9 -23 -26 -22 -22 1 -22 1 -22 -157 l0 -159 25 0 c15 0 25 -5 24 -12 -3 -28 2 -37 24 -40 12 -2 23 -9 23 -15 1 -7 2 -17 3 -23 0 -5 12 -10 25 -10 13 0 26 -7 30 -15 3 -8 14 -15 25 -15 13 0 21 -8 23 -22 2 -14 11 -24 23 -26 12 -2 26 -15 32 -32 7 -20 18 -30 31 -30 14 0 22 -8 24 -22 2 -13 11 -24 23 -26 11 -2 28 -11 37 -19 9 -8 22 -12 27 -8 6 3 14 -1 17 -9 3 -9 17 -16 30 -16 19 0 24 -5 24 -25 0 -24 3 -25 60 -25 l60 0 0 35 c0 27 4 35 18 35 23 0 42 19 42 41 0 11 9 19 23 21 18 2 23 10 25 41 3 32 7 37 28 37 21 0 24 4 24 39 0 36 3 40 28 43 23 3 27 8 30 41 3 29 7 37 23 37 11 0 23 10 28 24 5 13 19 26 30 29 16 4 21 13 21 41 0 32 3 36 25 36 l25 0 0 150 0 150 -24 0 c-16 0 -36 14 -59 40 -19 22 -40 40 -48 40 -8 0 -20 9 -27 20 -7 11 -18 20 -26 20 -7 0 -21 9 -31 20 -16 18 -31 20 -122 20 -56 0 -103 -4 -103 -8z m205 -46 c31 -29 26 -33 -46 -42 -30 -4 -60 -10 -68 -14 -9 -5 -24 4 -42 25 -34 38 -36 49 -9 42 11 -3 23 -1 26 4 3 5 29 9 59 9 43 0 59 -5 80 -24z m-163 -68 c20 -20 21 -53 2 -53 -16 0 -74 48 -74 62 0 27 41 22 72 -9z m-209 -28 c15 -13 27 -27 27 -31 0 -7 -28 -14 -100 -26 -19 -3 -38 -10 -42 -16 -7 -12 -76 41 -77 61 -1 7 13 12 38 12 22 0 41 5 44 13 8 22 79 14 110 -13z m437 10 c6 -11 19 -20 29 -20 11 0 21 -6 24 -14 3 -8 16 -16 29 -18 23 -3 23 -5 23 -128 l0 -124 -25 -6 c-20 -5 -26 -13 -28 -42 -2 -29 -8 -37 -25 -40 -14 -2 -23 -11 -25 -25 -3 -17 -10 -23 -28 -23 -21 0 -24 -4 -24 -40 0 -36 -3 -40 -24 -40 -27 0 -39 -21 -30 -55 5 -20 2 -24 -23 -27 -24 -3 -28 -8 -31 -40 -3 -33 -7 -38 -28 -38 -20 0 -24 -5 -24 -31 0 -17 -4 -28 -10 -24 -16 10 -12 91 5 105 8 7 15 29 15 50 0 33 3 37 20 33 16 -4 20 0 20 20 0 19 7 28 29 35 24 8 30 17 33 44 2 25 8 34 26 36 18 3 22 10 22 37 0 27 4 34 23 37 18 2 23 11 27 43 4 32 9 41 28 43 21 3 22 8 22 78 0 41 0 77 0 82 1 4 -8 8 -20 10 -11 2 -20 11 -20 21 0 31 -29 46 -84 45 -33 -1 -38 0 -14 3 20 2 42 11 48 19 17 19 27 18 40 -6z m-140 -45 c0 -19 -4 -35 -8 -35 -4 0 -6 16 -4 35 2 19 6 35 8 35 2 0 4 -16 4 -35z m-490 -18 c0 -7 11 -21 25 -31 14 -10 25 -24 25 -29 0 -16 -61 -77 -77 -77 -7 0 -26 14 -43 30 l-31 31 43 43 c46 47 58 54 58 33z m264 -52 c3 -8 15 -15 26 -15 38 0 33 -27 -14 -74 -25 -25 -46 -41 -46 -36 0 11 59 70 71 70 5 0 9 7 9 15 0 9 -9 15 -24 15 -13 0 -27 7 -30 16 -5 12 -17 15 -55 12 -27 -1 -47 0 -44 5 2 4 26 7 53 7 33 0 50 -5 54 -15z m-147 -45 c-6 -25 27 -28 41 -4 5 9 18 14 33 12 19 -2 25 -10 27 -35 3 -28 0 -32 -25 -35 -23 -2 -29 -8 -31 -35 -3 -27 -8 -33 -27 -33 -20 0 -24 -6 -27 -37 -3 -33 -6 -38 -28 -38 -24 0 -25 3 -28 63 -2 45 -6 61 -15 56 -7 -4 -3 2 7 14 13 15 23 19 31 12 13 -11 25 -3 25 17 0 7 -10 14 -22 14 -23 2 -23 2 1 6 13 3 26 13 28 24 3 10 8 19 10 19 3 0 3 -9 0 -20z m284 -46 l-39 -38 39 -39 c42 -43 47 -58 24 -81 -8 -8 -15 -24 -15 -35 0 -11 -8 -24 -17 -30 -16 -9 -16 -11 2 -33 11 -13 26 -27 33 -31 6 -4 12 -13 12 -20 0 -14 -70 60 -70 74 0 5 7 12 15 15 8 4 15 16 15 29 0 12 7 28 15 35 23 19 18 35 -26 75 l-41 36 44 47 c24 26 44 44 46 41 2 -4 -15 -24 -37 -45z m-479 -1 c15 -14 18 -32 18 -120 0 -57 -4 -103 -9 -103 -5 0 -19 14 -32 31 -18 25 -22 45 -23 120 -1 95 7 108 46 72z m90 -133 c-3 -106 -2 -110 18 -110 12 0 25 -10 31 -24 8 -16 26 -29 54 -37 35 -10 44 -18 49 -41 4 -22 10 -27 28 -25 19 2 22 -2 20 -20 -3 -22 6 -28 36 -24 6 1 12 -8 12 -19 0 -30 26 -53 50 -45 17 5 20 15 20 62 0 52 -3 59 -40 95 -51 50 -54 90 -10 135 l30 31 -40 39 c-22 22 -40 43 -40 48 0 4 20 -13 45 -38 25 -26 45 -48 45 -51 0 -3 -13 -19 -30 -36 -42 -43 -40 -76 10 -125 37 -36 40 -43 40 -96 0 -38 5 -61 15 -69 17 -14 20 -56 6 -65 -5 -3 -18 6 -29 20 -11 14 -25 25 -32 25 -7 0 -45 31 -84 70 -40 38 -80 70 -89 70 -9 0 -17 10 -19 23 -2 14 -11 23 -25 25 -13 2 -23 11 -25 25 -2 13 -12 23 -28 27 -24 6 -25 8 -28 110 -2 91 1 130 10 130 2 0 2 -49 0 -110z"/>
<path d="M638 873 c6 -2 18 -2 25 0 6 3 1 5 -13 5 -14 0 -19 -2 -12 -5z"/>
</g>
</g>
  <g id="id8:id8" transform="matrix(1.25,0,0,1.25,0.0,0.0)"><g transform="translate(0.000000,38.400000) scale(0.040000,-0.040000)" fill="#bd1122" stroke="none">
<path d="M520 952 c0 -5 -11 -14 -25 -20 -15 -7 -25 -20 -25 -32 0 -11 -7 -23 -15 -26 -21 -9 -19 -61 3 -69 9 -3 34 -21 55 -40 52 -49 51 -89 -3 -143 -22 -21 -40 -43 -40 -49 0 -5 18 -26 40 -46 44 -39 47 -48 25 -67 -8 -7 -15 -21 -15 -31 0 -11 -4 -19 -9 -19 -5 0 -13 -9 -16 -21 -5 -15 1 -29 24 -53 28 -28 31 -38 29 -86 -1 -54 -2 -54 -5 -10 -3 31 -12 54 -32 75 -57 62 -57 63 -27 94 22 23 27 36 24 67 -2 29 -8 40 -22 42 -10 2 -28 13 -40 23 l-20 19 42 43 c71 72 58 114 -63 212 -28 21 -54 45 -58 52 -12 19 -103 17 -111 -2 -3 -9 -19 -15 -41 -15 -23 0 -38 -6 -42 -16 -3 -8 -12 -13 -19 -10 -18 7 -47 -23 -40 -41 4 -8 -4 -17 -18 -23 -14 -5 -26 -19 -28 -32 -2 -17 -9 -23 -26 -22 -22 1 -22 1 -22 -157 l0 -159 25 0 c15 0 25 -5 24 -12 -3 -28 2 -37 24 -40 12 -2 23 -9 23 -15 1 -7 2 -17 3 -23 0 -5 12 -10 25 -10 13 0 26 -7 30 -15 3 -8 14 -15 25 -15 13 0 21 -8 23 -22 2 -14 11 -24 23 -26 12 -2 26 -15 32 -32 7 -20 18 -30 31 -30 14 0 22 -8 24 -22 2 -13 11 -24 23 -26 11 -2 28 -11 37 -19 9 -8 22 -12 27 -8 6 3 14 -1 17 -9 3 -9 17 -16 30 -16 19 0 24 -5 24 -25 0 -24 3 -25 60 -25 l60 0 0 35 c0 27 4 35 18 35 23 0 42 19 42 41 0 11 9 19 23 21 18 2 23 10 25 41 3 32 7 37 28 37 21 0 24 4 24 39 0 36 3 40 28 43 23 3 27 8 30 41 3 29 7 37 23 37 11 0 23 10 28 24 5 13 19 26 30 29 16 4 21 13 21 41 0 32 3 36 25 36 l25 0 0 150 0 150 -24 0 c-16 0 -36 14 -59 40 -19 22 -40 40 -48 40 -8 0 -20 9 -27 20 -7 11 -18 20 -26 20 -7 0 -21 9 -31 20 -16 18 -31 20 -122 20 -56 0 -103 -4 -103 -8z m194 -38 c5 -14 4 -15 -8 -4 -10 7 -36 11 -70 8 -30 -1 -52 0 -49 5 2 4 30 7 63 7 44 0 59 -4 64 -16z m-154 -4 c-14 -9 -7 -14 13 -11 5 1 6 -3 2 -9 -5 -8 -11 -7 -21 1 -19 16 -18 29 4 29 14 0 15 -2 2 -10z m178 -26 c-3 -9 -15 -12 -70 -19 -23 -2 -38 1 -38 7 0 6 11 8 28 5 16 -3 39 0 53 7 25 13 33 13 27 0z m-183 -44 c3 -9 3 -25 -1 -34 -9 -25 5 -19 16 7 l10 22 -3 -24 c-3 -35 -17 -35 -56 -1 -19 17 -28 30 -20 31 12 0 12 1 0 6 -10 4 -10 7 -1 13 18 11 49 0 55 -20z m-305 -20 c-6 -11 -20 -20 -31 -20 -11 0 -29 -5 -40 -10 -14 -8 -19 -7 -19 3 0 8 14 14 37 15 21 2 41 9 46 17 12 23 19 18 7 -5z m85 10 c3 -5 2 -10 -4 -10 -5 0 -13 5 -16 10 -3 6 -2 10 4 10 5 0 13 -4 16 -10z m455 -10 c6 -11 19 -20 29 -20 11 0 21 -6 24 -14 3 -8 16 -16 29 -18 23 -3 23 -5 23 -128 l0 -124 -25 -6 c-20 -5 -26 -13 -28 -42 -2 -29 -8 -37 -25 -40 -14 -2 -23 -11 -25 -25 -3 -17 -10 -23 -28 -23 -21 0 -24 -4 -24 -40 0 -36 -3 -40 -24 -40 -27 0 -39 -21 -30 -55 5 -20 2 -24 -23 -27 -24 -3 -28 -8 -31 -40 -3 -33 -7 -38 -28 -38 -20 0 -24 -5 -24 -31 0 -17 -4 -28 -10 -24 -15 9 -12 86 4 104 17 20 28 129 13 138 -6 4 -7 1 -2 -8 8 -12 6 -12 -8 0 -9 7 -15 17 -12 21 3 5 -5 16 -17 24 -21 15 -19 31 5 31 7 0 11 11 9 27 -2 19 3 31 17 40 22 13 29 38 10 38 -5 0 -7 5 -4 10 3 6 0 10 -7 10 -17 0 -48 36 -40 46 4 4 -1 4 -10 1 -10 -4 -18 -3 -18 0 0 11 79 81 84 75 7 -7 0 63 -7 76 -8 11 47 34 58 24 4 -4 6 9 3 29 l-4 35 52 -4 c35 -3 54 0 59 8 6 9 4 11 -6 5 -12 -8 -12 -6 0 8 18 22 28 21 41 -3z m-411 -44 c0 -7 -2 -7 -5 1 -3 7 -11 11 -17 9 -7 -1 -9 -1 -4 1 4 3 4 10 0 16 -4 7 1 6 10 -2 9 -7 17 -19 16 -25z m-174 -16 c10 -11 16 -20 13 -20 -3 0 -13 9 -23 20 -10 11 -16 20 -13 20 3 0 13 -9 23 -20z m-45 0 c0 -5 -2 -10 -4 -10 -3 0 -8 5 -11 10 -3 6 -1 10 4 10 6 0 11 -4 11 -10z m160 0 c-8 -5 -31 -9 -50 -8 l-35 1 40 7 c59 11 61 11 45 0z m-218 -50 c-12 -12 -22 -18 -22 -14 0 10 34 42 39 38 3 -2 -5 -13 -17 -24z m105 -6 c7 -19 -49 -79 -76 -81 -11 -1 -22 6 -26 15 -5 13 -3 14 6 5 14 -14 36 -7 67 20 25 23 28 43 10 50 -10 4 -10 6 0 6 7 1 15 -6 19 -15z m207 4 c-3 -4 0 -8 6 -8 6 0 8 -4 5 -10 -4 -6 7 -10 25 -10 25 0 31 -4 28 -17 -2 -10 -11 -17 -20 -15 -9 1 -19 -6 -23 -17 -3 -11 -14 -22 -23 -25 -12 -4 -17 -17 -18 -40 0 -19 3 -34 7 -33 4 1 8 -2 10 -8 5 -16 39 -50 51 -50 6 0 13 -6 16 -12 2 -7 -1 -13 -8 -13 -6 0 -8 -4 -5 -10 3 -6 -1 -7 -10 -4 -12 5 -16 2 -13 -12 2 -11 -3 -19 -12 -19 -11 0 -16 -13 -18 -43 -2 -29 0 -42 7 -37 6 3 11 3 11 -2 0 -4 15 -23 32 -42 28 -30 32 -40 30 -84 -2 -40 2 -53 18 -64 20 -14 27 -57 11 -68 -5 -3 -18 6 -29 20 -11 14 -25 25 -32 25 -7 0 -45 32 -84 70 -40 39 -80 70 -89 70 -9 0 -17 10 -19 22 -2 15 -11 24 -26 26 -17 3 -21 8 -17 23 4 11 2 19 -5 19 -6 0 -9 4 -6 8 2 4 -8 8 -22 7 l-27 0 -2 112 c-1 103 6 139 22 114 9 -15 42 21 37 41 -3 11 2 16 14 14 23 -3 46 18 42 39 -2 8 8 21 22 28 27 14 122 18 114 5z m-364 -89 c0 -5 5 -7 10 -4 6 4 17 1 25 -5 11 -10 15 -38 15 -116 0 -58 -4 -104 -9 -104 -5 0 -19 14 -32 31 -18 25 -22 45 -23 120 0 49 2 89 7 89 4 0 7 -5 7 -11z"/>
<path d="M770 806 c0 -2 8 -10 18 -17 15 -13 16 -12 3 4 -13 16 -21 21 -21 13z"/>
<path d="M800 746 c0 -2 11 -6 25 -8 13 -3 22 -1 19 3 -5 9 -44 13 -44 5z"/>
<path d="M842 648 c-2 -71 -4 -77 -24 -80 -19 -2 -24 -11 -29 -45 -3 -23 -2 -40 3 -37 4 3 8 21 8 40 0 28 4 34 20 34 27 0 32 15 27 96 l-3 69 -2 -77z"/>
<path d="M696 401 c-3 -4 6 -6 19 -3 14 2 25 6 25 8 0 8 -39 4 -44 -5z"/>
<path d="M665 330 c-16 -7 -17 -9 -3 -9 9 -1 20 4 23 9 7 11 7 11 -20 0z"/>
<path d="M632 300 c0 -14 2 -19 5 -12 2 6 2 18 0 25 -3 6 -5 1 -5 -13z"/>
<path d="M350 246 c0 -2 7 -7 16 -10 8 -3 12 -2 9 4 -6 10 -25 14 -25 6z"/>
<path d="M76 431 c-4 -7 -5 -15 -2 -18 9 -9 19 4 14 18 -4 11 -6 11 -12 0z"/>
</g>
</g>
  <g id="id9:id9" transform="matrix(1.25,0,0,1.25,0.0,0.0)"><g transform="translate(0.000000,38.400000) scale(0.040000,-0.040000)" fill="#9c0f1d" stroke="none">
<path d="M520 952 c0 -5 -11 -14 -25 -20 -15 -7 -25 -20 -25 -32 0 -11 -7 -23 -15 -26 -21 -9 -19 -61 3 -69 9 -3 34 -21 55 -40 52 -49 51 -89 -3 -143 -22 -21 -40 -43 -40 -49 0 -5 18 -26 40 -46 44 -39 47 -48 25 -67 -8 -7 -15 -21 -15 -31 0 -11 -4 -19 -9 -19 -5 0 -13 -9 -16 -21 -5 -15 1 -29 24 -53 28 -28 31 -38 29 -86 -1 -54 -2 -54 -5 -10 -3 31 -12 54 -32 75 -57 62 -57 63 -27 94 22 23 27 36 24 67 -2 29 -8 40 -22 42 -10 2 -28 13 -40 23 l-20 19 42 43 c71 72 58 114 -63 212 -28 21 -54 45 -58 52 -12 19 -103 17 -111 -2 -3 -9 -19 -15 -41 -15 -23 0 -38 -6 -42 -16 -3 -8 -12 -13 -19 -10 -18 7 -47 -23 -40 -41 4 -8 -4 -17 -18 -23 -14 -5 -26 -19 -28 -32 -2 -17 -9 -23 -26 -22 -22 1 -22 1 -22 -157 l0 -159 25 0 c15 0 25 -5 24 -12 -3 -28 2 -37 24 -40 12 -2 23 -9 23 -15 1 -7 2 -17 3 -23 0 -5 12 -10 25 -10 13 0 26 -7 30 -15 3 -8 14 -15 25 -15 13 0 21 -8 23 -22 2 -14 11 -24 23 -26 12 -2 26 -15 32 -32 7 -20 18 -30 31 -30 14 0 22 -8 24 -22 2 -13 11 -24 23 -26 11 -2 28 -11 37 -19 9 -8 22 -12 27 -8 6 3 14 -1 17 -9 3 -9 17 -16 30 -16 19 0 24 -5 24 -25 0 -24 3 -25 60 -25 l60 0 0 35 c0 27 4 35 18 35 23 0 42 19 42 41 0 11 9 19 23 21 18 2 23 10 25 41 3 32 7 37 28 37 21 0 24 4 24 39 0 36 3 40 28 43 23 3 27 8 30 41 3 29 7 37 23 37 11 0 23 10 28 24 5 13 19 26 30 29 16 4 21 13 21 41 0 32 3 36 25 36 l25 0 0 150 0 150 -24 0 c-16 0 -36 14 -59 40 -19 22 -40 40 -48 40 -8 0 -20 9 -27 20 -7 11 -18 20 -26 20 -7 0 -21 9 -31 20 -16 18 -31 20 -122 20 -56 0 -103 -4 -103 -8z m200 -52 c14 -11 23 -20 20 -21 -11 -2 -56 -8 -86 -12 -17 -2 -36 -7 -43 -11 -7 -5 -21 3 -37 21 l-24 28 22 7 c49 14 122 8 148 -12z m70 -80 c6 -11 19 -20 29 -20 11 0 21 -6 24 -14 3 -8 16 -16 29 -18 23 -3 23 -5 23 -128 l0 -124 -25 -6 c-20 -5 -26 -13 -28 -42 -2 -29 -8 -37 -25 -40 -14 -2 -23 -11 -25 -25 -3 -17 -10 -23 -28 -23 -21 0 -24 -4 -24 -40 0 -36 -3 -40 -24 -40 -27 0 -39 -21 -30 -55 5 -20 2 -24 -23 -27 -24 -3 -28 -8 -31 -40 -3 -33 -7 -38 -28 -38 -20 0 -24 -5 -24 -31 0 -17 -4 -28 -10 -24 -16 10 -12 91 5 105 10 8 15 31 15 68 0 47 -4 60 -27 84 -23 24 -25 31 -15 46 7 9 15 24 18 32 3 8 10 23 15 32 16 31 10 50 -27 85 -39 36 -39 39 13 90 17 17 23 33 23 68 0 41 2 45 24 45 21 0 25 6 28 33 3 31 5 32 53 35 30 2 53 9 58 18 11 20 24 18 37 -6z m-443 -12 c13 -12 23 -25 23 -29 0 -4 -29 -11 -64 -14 -40 -5 -67 -12 -70 -21 -4 -10 -14 -5 -36 17 -39 39 -38 46 5 41 25 -3 36 0 41 12 9 24 73 21 101 -6z m219 -15 c-11 -11 -17 4 -9 23 7 18 8 18 11 1 2 -10 1 -21 -2 -24z m-366 -100 c0 -5 -15 -23 -33 -41 l-32 -31 -33 29 -33 29 38 39 38 39 28 -28 c15 -15 27 -32 27 -36z m218 9 c2 -7 15 -12 28 -12 37 0 30 -31 -16 -73 -22 -19 -40 -44 -40 -55 0 -11 18 -37 40 -58 22 -22 40 -44 40 -50 0 -6 -11 -21 -25 -34 -39 -37 -34 -82 13 -125 35 -31 39 -39 40 -91 1 -35 7 -63 17 -74 17 -18 20 -56 6 -65 -5 -3 -18 6 -29 20 -11 14 -25 25 -32 25 -7 0 -45 31 -84 70 -40 38 -80 70 -89 70 -9 0 -17 10 -19 22 -2 15 -11 24 -25 26 -17 2 -23 10 -23 27 0 18 -6 24 -26 27 l-27 3 1 110 c1 106 2 110 24 115 13 4 25 16 28 30 3 14 11 26 18 26 7 1 17 2 22 3 6 0 10 15 10 31 0 25 4 30 24 30 14 0 27 4 30 8 8 13 89 7 94 -6z m-348 -76 c0 -3 -4 -8 -10 -11 -5 -3 -10 -1 -10 4 0 6 5 11 10 11 6 0 10 -2 10 -4z m16 -213 c-10 -10 -19 5 -10 18 6 11 8 11 12 0 2 -7 1 -15 -2 -18z"/>
</g>
</g>
  <g id="id10:id10" transform="matrix(1.25,0,0,1.25,0.0,0.0)"><g transform="translate(0.000000,38.400000) scale(0.040000,-0.040000)" fill="#2a2d3c" stroke="none">
<path d="M520 952 c0 -5 -11 -14 -25 -20 -15 -7 -25 -20 -25 -32 0 -11 -7 -23 -15 -26 -21 -9 -19 -61 3 -69 9 -3 34 -21 55 -40 52 -49 51 -89 -3 -143 -22 -21 -40 -43 -40 -49 0 -5 18 -26 40 -46 44 -39 47 -48 25 -67 -8 -7 -15 -21 -15 -31 0 -11 -4 -19 -9 -19 -5 0 -13 -9 -16 -21 -5 -15 1 -29 24 -53 28 -28 31 -38 29 -86 -1 -54 -2 -54 -5 -10 -3 31 -12 54 -32 75 -57 62 -57 63 -27 94 22 23 27 36 24 67 -2 29 -8 40 -22 42 -10 2 -28 13 -40 23 l-20 19 42 43 c71 72 58 114 -63 212 -28 21 -54 45 -58 52 -12 19 -103 17 -111 -2 -3 -9 -19 -15 -41 -15 -23 0 -38 -6 -42 -16 -3 -8 -12 -13 -19 -10 -18 7 -47 -23 -40 -41 4 -8 -4 -17 -18 -23 -14 -5 -26 -19 -28 -32 -2 -17 -9 -23 -26 -22 -22 1 -22 1 -22 -157 l0 -159 25 0 c15 0 25 -5 24 -12 -3 -28 2 -37 24 -40 12 -2 23 -9 23 -15 1 -7 2 -17 3 -23 0 -5 12 -10 25 -10 13 0 26 -7 30 -15 3 -8 14 -15 25 -15 13 0 21 -8 23 -22 2 -14 11 -24 23 -26 12 -2 26 -15 32 -32 7 -20 18 -30 31 -30 14 0 22 -8 24 -22 2 -13 11 -24 23 -26 11 -2 28 -11 37 -19 9 -8 22 -12 27 -8 6 3 14 -1 17 -9 3 -9 17 -16 30 -16 19 0 24 -5 24 -25 0 -24 3 -25 60 -25 l60 0 0 35 c0 27 4 35 18 35 23 0 42 19 42 41 0 11 9 19 23 21 18 2 23 10 25 41 3 32 7 37 28 37 21 0 24 4 24 39 0 36 3 40 28 43 23 3 27 8 30 41 3 29 7 37 23 37 11 0 23 10 28 24 5 13 19 26 30 29 16 4 21 13 21 41 0 32 3 36 25 36 l25 0 0 150 0 150 -24 0 c-16 0 -36 14 -59 40 -19 22 -40 40 -48 40 -8 0 -20 9 -27 20 -7 11 -18 20 -26 20 -7 0 -21 9 -31 20 -16 18 -31 20 -122 20 -56 0 -103 -4 -103 -8z m205 -46 c31 -29 26 -33 -46 -42 -30 -4 -60 -10 -68 -14 -9 -5 -24 4 -42 25 -34 38 -36 49 -9 42 11 -3 23 -1 26 4 3 5 29 9 59 9 43 0 59 -5 80 -24z m-163 -68 c20 -20 21 -53 2 -53 -16 0 -74 48 -74 62 0 27 41 22 72 -9z m-209 -28 c15 -13 27 -27 27 -31 0 -7 -28 -14 -100 -26 -19 -3 -38 -10 -42 -16 -7 -12 -76 41 -77 61 -1 7 13 12 38 12 22 0 41 5 44 13 8 22 79 14 110 -13z m437 10 c6 -11 19 -20 29 -20 11 0 21 -6 24 -14 3 -8 16 -16 29 -18 23 -3 23 -5 23 -128 l0 -124 -25 -6 c-20 -5 -26 -13 -28 -42 -2 -29 -8 -37 -25 -40 -14 -2 -23 -11 -25 -25 -3 -17 -10 -23 -28 -23 -21 0 -24 -4 -24 -40 0 -36 -3 -40 -24 -40 -27 0 -39 -21 -30 -55 5 -20 2 -24 -23 -27 -24 -3 -28 -8 -31 -40 -3 -33 -7 -38 -28 -38 -20 0 -24 -5 -24 -31 0 -17 -4 -28 -10 -24 -16 10 -12 91 5 105 10 8 15 30 15 64 0 42 -5 57 -30 85 -34 38 -37 49 -15 57 8 4 15 16 15 29 0 12 7 28 15 35 23 19 18 35 -26 75 l-41 37 42 43 c37 37 41 47 38 81 -2 34 0 39 22 44 19 4 26 13 28 38 3 31 5 32 51 32 31 0 53 5 61 15 17 20 27 19 40 -5z m-630 -63 c0 -7 11 -21 25 -31 14 -10 25 -24 25 -29 0 -16 -61 -77 -77 -77 -7 0 -26 14 -43 30 l-31 31 43 43 c46 47 58 54 58 33z m264 -52 c3 -8 15 -15 26 -15 38 0 33 -27 -14 -74 -25 -25 -46 -49 -46 -54 0 -6 20 -30 45 -55 25 -26 45 -48 45 -51 0 -3 -13 -19 -30 -36 -42 -43 -40 -76 10 -125 37 -36 40 -43 40 -96 0 -38 5 -61 15 -69 17 -14 20 -56 6 -65 -5 -3 -18 6 -29 20 -11 14 -25 25 -32 25 -7 0 -45 32 -84 70 -40 39 -80 70 -89 70 -9 0 -17 10 -19 22 -2 15 -11 24 -25 26 -13 2 -23 11 -25 25 -2 13 -12 23 -28 27 -25 6 -25 6 -25 120 0 92 3 114 14 112 19 -4 41 17 41 39 0 11 9 19 23 21 16 2 23 11 25 31 2 19 9 27 22 27 10 0 22 5 25 10 10 17 102 12 109 -5z m-342 -92 c15 -14 18 -32 18 -120 0 -57 -4 -103 -9 -103 -5 0 -19 14 -32 31 -18 25 -22 45 -23 120 -1 95 7 108 46 72z"/>
</g>
</g>
  <g id="id11:id11" transform="matrix(1.25,0,0,1.25,0.0,0.0)"><g transform="translate(0.000000,38.400000) scale(0.040000,-0.040000)" fill="#700c24" stroke="none">
<path d="M520 952 c0 -5 -11 -14 -25 -20 -15 -7 -25 -20 -25 -32 0 -11 -7 -23 -15 -26 -21 -9 -19 -61 3 -69 9 -3 34 -21 55 -40 52 -49 51 -89 -3 -143 -22 -21 -40 -43 -40 -49 0 -5 18 -26 40 -46 44 -39 47 -48 25 -67 -8 -7 -15 -21 -15 -31 0 -11 -4 -19 -9 -19 -5 0 -13 -9 -16 -21 -5 -15 1 -29 24 -53 28 -28 31 -38 29 -86 -1 -54 -2 -54 -5 -10 -3 31 -12 54 -32 75 -57 62 -57 63 -27 94 22 23 27 36 24 67 -2 29 -8 40 -22 42 -10 2 -28 13 -40 23 l-20 19 42 43 c71 72 58 114 -63 212 -28 21 -54 45 -58 52 -12 19 -103 17 -111 -2 -3 -9 -19 -15 -41 -15 -23 0 -38 -6 -42 -16 -3 -8 -12 -13 -19 -10 -18 7 -47 -23 -40 -41 4 -8 -4 -17 -18 -23 -14 -5 -26 -19 -28 -32 -2 -17 -9 -23 -26 -22 -22 1 -22 1 -22 -157 l0 -159 25 0 c15 0 25 -5 24 -12 -3 -28 2 -37 24 -40 12 -2 23 -9 23 -15 1 -7 2 -17 3 -23 0 -5 12 -10 25 -10 13 0 26 -7 30 -15 3 -8 14 -15 25 -15 13 0 21 -8 23 -22 2 -14 11 -24 23 -26 12 -2 26 -15 32 -32 7 -20 18 -30 31 -30 14 0 22 -8 24 -22 2 -13 11 -24 23 -26 11 -2 28 -11 37 -19 9 -8 22 -12 27 -8 6 3 14 -1 17 -9 3 -9 17 -16 30 -16 19 0 24 -5 24 -25 0 -24 3 -25 60 -25 l60 0 0 35 c0 27 4 35 18 35 23 0 42 19 42 41 0 11 9 19 23 21 18 2 23 10 25 41 3 32 7 37 28 37 21 0 24 4 24 39 0 36 3 40 28 43 23 3 27 8 30 41 3 29 7 37 23 37 11 0 23 10 28 24 5 13 19 26 30 29 16 4 21 13 21 41 0 32 3 36 25 36 l25 0 0 150 0 150 -24 0 c-16 0 -36 14 -59 40 -19 22 -40 40 -48 40 -8 0 -20 9 -27 20 -7 11 -18 20 -26 20 -7 0 -21 9 -31 20 -16 18 -31 20 -122 20 -56 0 -103 -4 -103 -8z m205 -46 c31 -29 26 -33 -46 -42 -30 -4 -60 -10 -68 -14 -9 -5 -24 4 -42 25 -34 38 -36 49 -9 42 11 -3 23 -1 26 4 3 5 29 9 59 9 43 0 59 -5 80 -24z m-163 -68 c20 -20 21 -53 2 -53 -16 0 -74 48 -74 62 0 27 41 22 72 -9z m-209 -28 c15 -13 27 -27 27 -31 0 -7 -28 -14 -100 -26 -19 -3 -38 -10 -42 -16 -7 -12 -76 41 -77 61 -1 7 13 12 38 12 22 0 41 5 44 13 8 22 79 14 110 -13z m437 10 c6 -11 19 -20 29 -20 11 0 21 -6 24 -14 3 -8 16 -16 29 -18 23 -3 23 -5 23 -128 l0 -124 -25 -6 c-20 -5 -26 -13 -28 -42 -2 -29 -8 -37 -25 -40 -14 -2 -23 -11 -25 -25 -3 -17 -10 -23 -28 -23 -21 0 -24 -4 -24 -40 0 -36 -3 -40 -24 -40 -27 0 -39 -21 -30 -55 5 -20 2 -24 -23 -27 -24 -3 -28 -8 -31 -40 -3 -33 -7 -38 -28 -38 -20 0 -24 -5 -24 -31 0 -17 -4 -28 -10 -24 -16 10 -12 91 5 105 10 8 15 30 15 64 0 42 -5 57 -30 85 -34 38 -37 49 -15 57 8 4 15 16 15 29 0 12 7 28 15 35 23 19 18 35 -26 75 l-41 37 42 43 c37 37 41 47 38 81 -2 34 0 39 22 44 19 4 26 13 28 38 3 31 5 32 51 32 31 0 53 5 61 15 17 20 27 19 40 -5z m-630 -63 c0 -7 11 -21 25 -31 14 -10 25 -24 25 -29 0 -16 -61 -77 -77 -77 -7 0 -26 14 -43 30 l-31 31 43 43 c46 47 58 54 58 33z m264 -52 c3 -8 15 -15 26 -15 38 0 33 -27 -14 -74 -25 -25 -46 -49 -46 -54 0 -6 20 -30 45 -55 25 -26 45 -48 45 -51 0 -3 -13 -19 -30 -36 -42 -43 -40 -76 10 -125 37 -36 40 -43 40 -96 0 -38 5 -61 15 -69 17 -14 20 -56 6 -65 -5 -3 -18 6 -29 20 -11 14 -25 25 -32 25 -7 0 -45 32 -84 70 -40 39 -80 70 -89 70 -9 0 -17 10 -19 22 -2 15 -11 24 -25 26 -13 2 -23 11 -25 25 -2 13 -12 23 -28 27 -25 6 -25 6 -25 120 0 92 3 114 14 112 19 -4 41 17 41 39 0 11 9 19 23 21 16 2 23 11 25 31 2 19 9 27 22 27 10 0 22 5 25 10 10 17 102 12 109 -5z m-342 -92 c15 -14 18 -32 18 -120 0 -57 -4 -103 -9 -103 -5 0 -19 14 -32 31 -18 25 -22 45 -23 120 -1 95 7 108 46 72z"/>
</g>
</g>
  <g id="id12:id12" transform="matrix(1.25,0,0,1.25,0.0,0.0)"><g transform="translate(0.000000,38.400000) scale(0.040000,-0.040000)" fill="#440922" stroke="none">
<path d="M520 952 c0 -5 -11 -14 -25 -20 -15 -7 -25 -20 -25 -32 0 -11 -7 -23 -15 -26 -21 -9 -19 -61 3 -69 9 -3 34 -21 55 -40 52 -49 51 -89 -3 -143 -22 -21 -40 -43 -40 -49 0 -5 18 -26 40 -46 44 -39 47 -48 25 -67 -8 -7 -15 -21 -15 -31 0 -11 -4 -19 -9 -19 -5 0 -13 -9 -16 -21 -5 -15 1 -29 24 -53 28 -28 31 -38 29 -86 -1 -54 -2 -54 -5 -10 -3 31 -12 54 -32 75 -57 62 -57 63 -27 94 22 23 27 36 24 67 -2 29 -8 40 -22 42 -10 2 -28 13 -40 23 l-20 19 42 43 c71 72 58 114 -63 212 -28 21 -54 45 -58 52 -12 19 -103 17 -111 -2 -3 -9 -19 -15 -41 -15 -23 0 -38 -6 -42 -16 -3 -8 -12 -13 -19 -10 -18 7 -47 -23 -40 -41 4 -8 -4 -17 -18 -23 -14 -5 -26 -19 -28 -32 -2 -17 -9 -23 -26 -22 -22 1 -22 1 -22 -157 l0 -159 25 0 c15 0 25 -5 24 -12 -3 -28 2 -37 24 -40 12 -2 23 -9 23 -15 1 -7 2 -17 3 -23 0 -5 12 -10 25 -10 13 0 26 -7 30 -15 3 -8 14 -15 25 -15 13 0 21 -8 23 -22 2 -14 11 -24 23 -26 12 -2 26 -15 32 -32 7 -20 18 -30 31 -30 14 0 22 -8 24 -22 2 -13 11 -24 23 -26 11 -2 28 -11 37 -19 9 -8 22 -12 27 -8 6 3 14 -1 17 -9 3 -9 17 -16 30 -16 19 0 24 -5 24 -25 0 -24 3 -25 60 -25 l60 0 0 35 c0 27 4 35 18 35 23 0 42 19 42 41 0 11 9 19 23 21 18 2 23 10 25 41 3 32 7 37 28 37 21 0 24 4 24 39 0 36 3 40 28 43 23 3 27 8 30 41 3 29 7 37 23 37 11 0 23 10 28 24 5 13 19 26 30 29 16 4 21 13 21 41 0 32 3 36 25 36 l25 0 0 150 0 150 -24 0 c-16 0 -36 14 -59 40 -19 22 -40 40 -48 40 -8 0 -20 9 -27 20 -7 11 -18 20 -26 20 -7 0 -21 9 -31 20 -16 18 -31 20 -122 20 -56 0 -103 -4 -103 -8z m205 -46 c31 -29 26 -33 -46 -42 -30 -4 -60 -10 -68 -14 -9 -5 -24 4 -42 25 -34 38 -36 49 -9 42 11 -3 23 -1 26 4 3 5 29 9 59 9 43 0 59 -5 80 -24z m-163 -68 c20 -20 21 -53 2 -53 -16 0 -74 48 -74 62 0 27 41 22 72 -9z m-209 -28 c15 -13 27 -27 27 -31 0 -7 -28 -14 -100 -26 -19 -3 -38 -10 -42 -16 -7 -12 -76 41 -77 61 -1 7 13 12 38 12 22 0 41 5 44 13 8 22 79 14 110 -13z m437 10 c6 -11 19 -20 29 -20 11 0 21 -6 24 -14 3 -8 16 -16 29 -18 23 -3 23 -5 23 -128 l0 -124 -25 -6 c-20 -5 -26 -13 -28 -42 -2 -29 -8 -37 -25 -40 -14 -2 -23 -11 -25 -25 -3 -17 -10 -23 -28 -23 -21 0 -24 -4 -24 -40 0 -36 -3 -40 -24 -40 -27 0 -39 -21 -30 -55 5 -20 2 -24 -23 -27 -24 -3 -28 -8 -31 -40 -3 -33 -7 -38 -28 -38 -20 0 -24 -5 -24 -31 0 -17 -4 -28 -10 -24 -16 10 -12 91 5 105 10 8 15 30 15 64 0 42 -5 57 -30 85 -34 38 -37 49 -15 57 8 4 15 16 15 29 0 12 7 28 15 35 23 19 18 35 -26 75 l-41 37 42 43 c37 37 41 47 38 81 -2 34 0 39 22 44 19 4 26 13 28 38 3 31 5 32 51 32 31 0 53 5 61 15 17 20 27 19 40 -5z m-630 -63 c0 -7 11 -21 25 -31 14 -10 25 -24 25 -29 0 -16 -61 -77 -77 -77 -7 0 -26 14 -43 30 l-31 31 43 43 c46 47 58 54 58 33z m264 -52 c3 -8 15 -15 26 -15 38 0 33 -27 -14 -74 -25 -25 -46 -49 -46 -54 0 -6 20 -30 45 -55 25 -26 45 -48 45 -51 0 -3 -13 -19 -30 -36 -42 -43 -40 -76 10 -125 37 -36 40 -43 40 -96 0 -38 5 -61 15 -69 17 -14 20 -56 6 -65 -5 -3 -18 6 -29 20 -11 14 -25 25 -32 25 -7 0 -45 32 -84 70 -40 39 -80 70 -89 70 -9 0 -17 10 -19 22 -2 15 -11 24 -25 26 -13 2 -23 11 -25 25 -2 13 -12 23 -28 27 -25 6 -25 6 -25 120 0 92 3 114 14 112 19 -4 41 17 41 39 0 11 9 19 23 21 16 2 23 11 25 31 2 19 9 27 22 27 10 0 22 5 25 10 10 17 102 12 109 -5z m-342 -92 c15 -14 18 -32 18 -120 0 -57 -4 -103 -9 -103 -5 0 -19 14 -32 31 -18 25 -22 45 -23 120 -1 95 7 108 46 72z"/>
</g>
</g>
  <g id="id13:id13" transform="matrix(1.25,0,0,1.25,0.0,0.0)"><g transform="translate(0.000000,38.400000) scale(0.040000,-0.040000)" fill="#1e1a2c" stroke="none">
<path d="M520 952 c0 -5 -11 -14 -25 -20 -15 -7 -25 -20 -25 -32 0 -11 -7 -23 -15 -26 -21 -9 -19 -61 3 -69 9 -3 34 -21 55 -40 52 -49 51 -89 -3 -143 -22 -21 -40 -43 -40 -49 0 -5 18 -26 40 -46 44 -39 47 -48 25 -67 -8 -7 -15 -21 -15 -31 0 -11 -4 -19 -9 -19 -5 0 -13 -9 -16 -21 -5 -15 1 -29 24 -53 28 -28 31 -38 29 -86 -1 -54 -2 -54 -5 -10 -3 31 -12 54 -32 75 -57 62 -57 63 -27 94 22 23 27 36 24 67 -2 29 -8 40 -22 42 -10 2 -28 13 -40 23 l-20 19 42 43 c71 72 58 114 -63 212 -28 21 -54 45 -58 52 -12 19 -103 17 -111 -2 -3 -9 -19 -15 -41 -15 -23 0 -38 -6 -42 -16 -3 -8 -12 -13 -19 -10 -18 7 -47 -23 -40 -41 4 -8 -4 -17 -18 -23 -14 -5 -26 -19 -28 -32 -2 -17 -9 -23 -26 -22 -22 1 -22 1 -22 -157 l0 -159 25 0 c15 0 25 -5 24 -12 -3 -28 2 -37 24 -40 12 -2 23 -9 23 -15 1 -7 2 -17 3 -23 0 -5 12 -10 25 -10 13 0 26 -7 30 -15 3 -8 14 -15 25 -15 13 0 21 -8 23 -22 2 -14 11 -24 23 -26 12 -2 26 -15 32 -32 7 -20 18 -30 31 -30 14 0 22 -8 24 -22 2 -13 11 -24 23 -26 11 -2 28 -11 37 -19 9 -8 22 -12 27 -8 6 3 14 -1 17 -9 3 -9 17 -16 30 -16 19 0 24 -5 24 -25 0 -24 3 -25 60 -25 l60 0 0 35 c0 27 4 35 18 35 23 0 42 19 42 41 0 11 9 19 23 21 18 2 23 10 25 41 3 32 7 37 28 37 21 0 24 4 24 39 0 36 3 40 28 43 23 3 27 8 30 41 3 29 7 37 23 37 11 0 23 10 28 24 5 13 19 26 30 29 16 4 21 13 21 41 0 32 3 36 25 36 l25 0 0 150 0 150 -24 0 c-16 0 -36 14 -59 40 -19 22 -40 40 -48 40 -8 0 -20 9 -27 20 -7 11 -18 20 -26 20 -7 0 -21 9 -31 20 -16 18 -31 20 -122 20 -56 0 -103 -4 -103 -8z m205 -46 c31 -29 26 -33 -46 -42 -30 -4 -60 -10 -68 -14 -9 -5 -24 4 -42 25 -34 38 -36 49 -9 42 11 -3 23 -1 26 4 3 5 29 9 59 9 43 0 59 -5 80 -24z m-163 -68 c20 -20 21 -53 2 -53 -16 0 -74 48 -74 62 0 27 41 22 72 -9z m-209 -28 c15 -13 27 -27 27 -31 0 -7 -28 -14 -100 -26 -19 -3 -38 -10 -42 -16 -7 -12 -76 41 -77 61 -1 7 13 12 38 12 22 0 41 5 44 13 8 22 79 14 110 -13z m437 10 c6 -11 19 -20 29 -20 11 0 21 -6 24 -14 3 -8 16 -16 29 -18 23 -3 23 -5 23 -128 l0 -124 -25 -6 c-20 -5 -26 -13 -28 -42 -2 -29 -8 -37 -25 -40 -14 -2 -23 -11 -25 -25 -3 -17 -10 -23 -28 -23 -21 0 -24 -4 -24 -40 0 -36 -3 -40 -24 -40 -27 0 -39 -21 -30 -55 5 -20 2 -24 -23 -27 -24 -3 -28 -8 -31 -40 -3 -33 -7 -38 -28 -38 -20 0 -24 -5 -24 -31 0 -17 -4 -28 -10 -24 -16 10 -12 91 5 105 10 8 15 30 15 64 0 42 -5 57 -30 85 -34 38 -37 49 -15 57 8 4 15 16 15 29 0 12 7 28 15 35 23 19 18 35 -26 75 l-41 37 42 43 c37 37 41 47 38 81 -2 34 0 39 22 44 19 4 26 13 28 38 3 31 5 32 51 32 31 0 53 5 61 15 17 20 27 19 40 -5z m-630 -63 c0 -7 11 -21 25 -31 14 -10 25 -24 25 -29 0 -16 -61 -77 -77 -77 -7 0 -26 14 -43 30 l-31 31 43 43 c46 47 58 54 58 33z m264 -52 c3 -8 15 -15 26 -15 38 0 33 -27 -14 -74 -25 -25 -46 -49 -46 -54 0 -6 20 -30 45 -55 25 -26 45 -48 45 -51 0 -3 -13 -19 -30 -36 -42 -43 -40 -76 10 -125 37 -36 40 -43 40 -96 0 -38 5 -61 15 -69 17 -14 20 -56 6 -65 -5 -3 -18 6 -29 20 -11 14 -25 25 -32 25 -7 0 -45 32 -84 70 -40 39 -80 70 -89 70 -9 0 -17 10 -19 22 -2 15 -11 24 -25 26 -13 2 -23 11 -25 25 -2 13 -12 23 -28 27 -25 6 -25 6 -25 120 0 92 3 114 14 112 19 -4 41 17 41 39 0 11 9 19 23 21 16 2 23 11 25 31 2 19 9 27 22 27 10 0 22 5 25 10 10 17 102 12 109 -5z m-342 -92 c15 -14 18 -32 18 -120 0 -57 -4 -103 -9 -103 -5 0 -19 14 -32 31 -18 25 -22 45 -23 120 -1 95 7 108 46 72z"/>
</g>
</g>
  <g id="id14:id14" transform="matrix(1.25,0,0,1.25,0.0,0.0)"><g transform="translate(0.000000,38.400000) scale(0.040000,-0.040000)" fill="#0f0e22" stroke="none">
<path d="M520 952 c0 -5 -11 -14 -25 -20 -15 -7 -25 -20 -25 -32 0 -11 -7 -23 -15 -26 -21 -9 -19 -61 3 -69 9 -3 34 -21 55 -40 52 -49 51 -89 -3 -143 -22 -21 -40 -43 -40 -49 0 -5 18 -26 40 -46 44 -39 47 -48 25 -67 -8 -7 -15 -21 -15 -31 0 -11 -4 -19 -9 -19 -5 0 -13 -9 -16 -21 -5 -15 1 -29 24 -53 28 -28 31 -38 29 -86 -1 -54 -2 -54 -5 -10 -3 31 -12 54 -32 75 -57 62 -57 63 -27 94 22 23 27 36 24 67 -2 29 -8 40 -22 42 -10 2 -28 13 -40 23 l-20 19 42 43 c71 72 58 114 -63 212 -28 21 -54 45 -58 52 -12 19 -103 17 -111 -2 -3 -9 -19 -15 -41 -15 -23 0 -38 -6 -42 -16 -3 -8 -12 -13 -19 -10 -18 7 -47 -23 -40 -41 4 -8 -4 -17 -18 -23 -14 -5 -26 -19 -28 -32 -2 -17 -9 -23 -26 -22 -22 1 -22 1 -22 -157 l0 -159 25 0 c15 0 25 -5 24 -12 -3 -28 2 -37 24 -40 12 -2 23 -9 23 -15 1 -7 2 -17 3 -23 0 -5 12 -10 25 -10 13 0 26 -7 30 -15 3 -8 14 -15 25 -15 13 0 21 -8 23 -22 2 -14 11 -24 23 -26 12 -2 26 -15 32 -32 7 -20 18 -30 31 -30 14 0 22 -8 24 -22 2 -13 11 -24 23 -26 11 -2 28 -11 37 -19 9 -8 22 -12 27 -8 6 3 14 -1 17 -9 3 -9 17 -16 30 -16 19 0 24 -5 24 -25 0 -24 3 -25 60 -25 l60 0 0 35 c0 27 4 35 18 35 23 0 42 19 42 41 0 11 9 19 23 21 18 2 23 10 25 41 3 32 7 37 28 37 21 0 24 4 24 39 0 36 3 40 28 43 23 3 27 8 30 41 3 29 7 37 23 37 11 0 23 10 28 24 5 13 19 26 30 29 16 4 21 13 21 41 0 32 3 36 25 36 l25 0 0 150 0 150 -24 0 c-16 0 -36 14 -59 40 -19 22 -40 40 -48 40 -8 0 -20 9 -27 20 -7 11 -18 20 -26 20 -7 0 -21 9 -31 20 -16 18 -31 20 -122 20 -56 0 -103 -4 -103 -8z m205 -46 c31 -29 26 -33 -46 -42 -30 -4 -60 -10 -68 -14 -9 -5 -24 4 -42 25 -34 38 -36 49 -9 42 11 -3 23 -1 26 4 3 5 29 9 59 9 43 0 59 -5 80 -24z m-163 -68 c20 -20 21 -53 2 -53 -16 0 -74 48 -74 62 0 27 41 22 72 -9z m-209 -28 c15 -13 27 -27 27 -31 0 -7 -28 -14 -100 -26 -19 -3 -38 -10 -42 -16 -7 -12 -76 41 -77 61 -1 7 13 12 38 12 22 0 41 5 44 13 8 22 79 14 110 -13z m437 10 c6 -11 19 -20 29 -20 11 0 21 -6 24 -14 3 -8 16 -16 29 -18 23 -3 23 -5 23 -128 l0 -124 -25 -6 c-20 -5 -26 -13 -28 -42 -2 -29 -8 -37 -25 -40 -14 -2 -23 -11 -25 -25 -3 -17 -10 -23 -28 -23 -21 0 -24 -4 -24 -40 0 -36 -3 -40 -24 -40 -27 0 -39 -21 -30 -55 5 -20 2 -24 -23 -27 -24 -3 -28 -8 -31 -40 -3 -33 -7 -38 -28 -38 -20 0 -24 -5 -24 -31 0 -17 -4 -28 -10 -24 -16 10 -12 91 5 105 10 8 15 30 15 64 0 42 -5 57 -30 85 -34 38 -37 49 -15 57 8 4 15 16 15 29 0 12 7 28 15 35 23 19 18 35 -26 75 l-41 37 42 43 c37 37 41 47 38 81 -2 34 0 39 22 44 19 4 26 13 28 38 3 31 5 32 51 32 31 0 53 5 61 15 17 20 27 19 40 -5z m-630 -63 c0 -7 11 -21 25 -31 14 -10 25 -24 25 -29 0 -16 -61 -77 -77 -77 -7 0 -26 14 -43 30 l-31 31 43 43 c46 47 58 54 58 33z m264 -52 c3 -8 15 -15 26 -15 38 0 33 -27 -14 -74 -25 -25 -46 -49 -46 -54 0 -6 20 -30 45 -55 25 -26 45 -48 45 -51 0 -3 -13 -19 -30 -36 -42 -43 -40 -76 10 -125 37 -36 40 -43 40 -96 0 -38 5 -61 15 -69 17 -14 20 -56 6 -65 -5 -3 -18 6 -29 20 -11 14 -25 25 -32 25 -7 0 -45 32 -84 70 -40 39 -80 70 -89 70 -9 0 -17 10 -19 22 -2 15 -11 24 -25 26 -13 2 -23 11 -25 25 -2 13 -12 23 -28 27 -25 6 -25 6 -25 120 0 92 3 114 14 112 19 -4 41 17 41 39 0 11 9 19 23 21 16 2 23 11 25 31 2 19 9 27 22 27 10 0 22 5 25 10 10 17 102 12 109 -5z m-342 -92 c15 -14 18 -32 18 -120 0 -57 -4 -103 -9 -103 -5 0 -19 14 -32 31 -18 25 -22 45 -23 120 -1 95 7 108 46 72z"/>
</g>
</g>
  <g id="id15:id15" transform="matrix(1.25,0,0,1.25,0.0,0.0)"><g transform="translate(0.000000,38.400000) scale(0.040000,-0.040000)" fill="#0d051c" stroke="none">
<path d="M520 952 c0 -5 -11 -14 -25 -20 -15 -7 -25 -20 -25 -32 0 -11 -7 -23 -15 -26 -21 -9 -19 -61 3 -69 9 -3 34 -21 55 -40 52 -49 51 -89 -3 -143 -22 -21 -40 -43 -40 -49 0 -5 18 -26 40 -46 44 -39 47 -48 25 -67 -8 -7 -15 -21 -15 -31 0 -11 -4 -19 -9 -19 -5 0 -13 -9 -16 -21 -5 -15 1 -29 24 -53 28 -28 31 -38 29 -86 -1 -54 -2 -54 -5 -10 -3 31 -12 54 -32 75 -57 62 -57 63 -27 94 22 23 27 36 24 67 -2 29 -8 40 -22 42 -10 2 -28 13 -40 23 l-20 19 42 43 c71 72 58 114 -63 212 -28 21 -54 45 -58 52 -12 19 -103 17 -111 -2 -3 -9 -19 -15 -41 -15 -23 0 -38 -6 -42 -16 -3 -8 -12 -13 -19 -10 -18 7 -47 -23 -40 -41 4 -8 -4 -17 -18 -23 -14 -5 -26 -19 -28 -32 -2 -17 -9 -23 -26 -22 -22 1 -22 1 -22 -157 l0 -159 25 0 c15 0 25 -5 24 -12 -3 -28 2 -37 24 -40 12 -2 23 -9 23 -15 1 -7 2 -17 3 -23 0 -5 12 -10 25 -10 13 0 26 -7 30 -15 3 -8 14 -15 25 -15 13 0 21 -8 23 -22 2 -14 11 -24 23 -26 12 -2 26 -15 32 -32 7 -20 18 -30 31 -30 14 0 22 -8 24 -22 2 -13 11 -24 23 -26 11 -2 28 -11 37 -19 9 -8 22 -12 27 -8 6 3 14 -1 17 -9 3 -9 17 -16 30 -16 19 0 24 -5 24 -25 0 -24 3 -25 60 -25 l60 0 0 35 c0 27 4 35 18 35 23 0 42 19 42 41 0 11 9 19 23 21 18 2 23 10 25 41 3 32 7 37 28 37 21 0 24 4 24 39 0 36 3 40 28 43 23 3 27 8 30 41 3 29 7 37 23 37 11 0 23 10 28 24 5 13 19 26 30 29 16 4 21 13 21 41 0 32 3 36 25 36 l25 0 0 150 0 150 -24 0 c-16 0 -36 14 -59 40 -19 22 -40 40 -48 40 -8 0 -20 9 -27 20 -7 11 -18 20 -26 20 -7 0 -21 9 -31 20 -16 18 -31 20 -122 20 -56 0 -103 -4 -103 -8z m205 -46 c31 -29 26 -33 -46 -42 -30 -4 -60 -10 -68 -14 -9 -5 -24 4 -42 25 -34 38 -36 49 -9 42 11 -3 23 -1 26 4 3 5 29 9 59 9 43 0 59 -5 80 -24z m-163 -68 c20 -20 21 -53 2 -53 -16 0 -74 48 -74 62 0 27 41 22 72 -9z m-209 -28 c15 -13 27 -27 27 -31 0 -7 -28 -14 -100 -26 -19 -3 -38 -10 -42 -16 -7 -12 -76 41 -77 61 -1 7 13 12 38 12 22 0 41 5 44 13 8 22 79 14 110 -13z m437 10 c6 -11 19 -20 29 -20 11 0 21 -6 24 -14 3 -8 16 -16 29 -18 23 -3 23 -5 23 -128 l0 -124 -25 -6 c-20 -5 -26 -13 -28 -42 -2 -29 -8 -37 -25 -40 -14 -2 -23 -11 -25 -25 -3 -17 -10 -23 -28 -23 -21 0 -24 -4 -24 -40 0 -36 -3 -40 -24 -40 -27 0 -39 -21 -30 -55 5 -20 2 -24 -23 -27 -24 -3 -28 -8 -31 -40 -3 -33 -7 -38 -28 -38 -20 0 -24 -5 -24 -31 0 -17 -4 -28 -10 -24 -16 10 -12 91 5 105 10 8 15 30 15 64 0 42 -5 57 -30 85 -34 38 -37 49 -15 57 8 4 15 16 15 29 0 12 7 28 15 35 23 19 18 35 -26 75 l-41 37 42 43 c37 37 41 47 38 81 -2 34 0 39 22 44 19 4 26 13 28 38 3 31 5 32 51 32 31 0 53 5 61 15 17 20 27 19 40 -5z m-630 -63 c0 -7 11 -21 25 -31 14 -10 25 -24 25 -29 0 -16 -61 -77 -77 -77 -7 0 -26 14 -43 30 l-31 31 43 43 c46 47 58 54 58 33z m264 -52 c3 -8 15 -15 26 -15 38 0 33 -27 -14 -74 -25 -25 -46 -49 -46 -54 0 -6 20 -30 45 -55 25 -26 45 -48 45 -51 0 -3 -13 -19 -30 -36 -42 -43 -40 -76 10 -125 37 -36 40 -43 40 -96 0 -38 5 -61 15 -69 17 -14 20 -56 6 -65 -5 -3 -18 6 -29 20 -11 14 -25 25 -32 25 -7 0 -45 32 -84 70 -40 39 -80 70 -89 70 -9 0 -17 10 -19 22 -2 15 -11 24 -25 26 -13 2 -23 11 -25 25 -2 13 -12 23 -28 27 -25 6 -25 6 -25 120 0 92 3 114 14 112 19 -4 41 17 41 39 0 11 9 19 23 21 16 2 23 11 25 31 2 19 9 27 22 27 10 0 22 5 25 10 10 17 102 12 109 -5z m-342 -92 c15 -14 18 -32 18 -120 0 -57 -4 -103 -9 -103 -5 0 -19 14 -32 31 -18 25 -22 45 -23 120 -1 95 7 108 46 72z"/>
</g>
</g>
</svg>
